<?xml version="1.0" encoding="UTF-8" standalone="no"?>
<!-- Created with Inkscape (http://www.inkscape.org/) -->

<svg
   xmlns:v="http://schemas.microsoft.com/visio/2003/SVGExtensions/"
   xmlns:dc="http://purl.org/dc/elements/1.1/"
   xmlns:cc="http://creativecommons.org/ns#"
   xmlns:rdf="http://www.w3.org/1999/02/22-rdf-syntax-ns#"
   xmlns:svg="http://www.w3.org/2000/svg"
   xmlns="http://www.w3.org/2000/svg"
   xmlns:sodipodi="http://sodipodi.sourceforge.net/DTD/sodipodi-0.dtd"
   xmlns:inkscape="http://www.inkscape.org/namespaces/inkscape"
   version="1.1"
   width="638.21484"
   height="478.76224"
   viewBox="0 0 638.21484 478.76224"
   id="svg7715"
   xml:space="preserve"
   style="font-size:12px;fill:none;stroke-linecap:square;stroke-miterlimit:3;overflow:visible"
   inkscape:version="0.48.4 r9939"
   sodipodi:docname="scheme3.svg"><sodipodi:namedview
     pagecolor="#ffffff"
     bordercolor="#666666"
     borderopacity="1"
     objecttolerance="10"
     gridtolerance="10"
     guidetolerance="10"
     inkscape:pageopacity="0"
     inkscape:pageshadow="2"
     inkscape:window-width="1920"
     inkscape:window-height="1025"
     id="namedview286"
     showgrid="false"
     inkscape:zoom="5.5769544"
     inkscape:cx="324.90196"
     inkscape:cy="402.76087"
     inkscape:window-x="1278"
     inkscape:window-y="-3"
     inkscape:window-maximized="1"
     inkscape:current-layer="svg7715" /><metadata
     id="metadata8337"><rdf:RDF><cc:Work
         rdf:about=""><dc:format>image/svg+xml</dc:format><dc:type
           rdf:resource="http://purl.org/dc/dcmitype/StillImage" /><dc:title /></cc:Work></rdf:RDF></metadata><v:documentProperties
     v:viewMarkup="false"
     v:metric="true"
     v:langID="1049" /><style
     type="text/css"
     id="style7717" /><defs
     id="Markers"><marker
       inkscape:stockid="TriangleInL"
       orient="auto"
       refY="0.0"
       refX="0.0"
       id="TriangleInL"
       style="overflow:visible"><path
         id="path6167"
         d="M 5.77,0.0 L -2.88,5.0 L -2.88,-5.0 L 5.77,0.0 z "
         style="fill-rule:evenodd;stroke:#000000;stroke-width:1.0pt"
         transform="scale(-0.8)" /></marker><marker
       inkscape:stockid="Arrow1Sstart"
       orient="auto"
       refY="0.0"
       refX="0.0"
       id="Arrow1Sstart"
       style="overflow:visible"><path
         id="path6046"
         d="M 0.0,0.0 L 5.0,-5.0 L -12.5,0.0 L 5.0,5.0 L 0.0,0.0 z "
         style="fill-rule:evenodd;stroke:#000000;stroke-width:1.0pt"
         transform="scale(0.2) translate(6,0)" /></marker><marker
       inkscape:stockid="Arrow1Mstart"
       orient="auto"
       refY="0.0"
       refX="0.0"
       id="Arrow1Mstart"
       style="overflow:visible"><path
         id="path6040"
         d="M 0.0,0.0 L 5.0,-5.0 L -12.5,0.0 L 5.0,5.0 L 0.0,0.0 z "
         style="fill-rule:evenodd;stroke:#000000;stroke-width:1.0pt"
         transform="scale(0.4) translate(10,0)" /></marker><marker
       inkscape:stockid="Arrow2Mstart"
       orient="auto"
       refY="0.0"
       refX="0.0"
       id="Arrow2Mstart"
       style="overflow:visible"><path
         id="path6058"
         style="fill-rule:evenodd;stroke-width:0.62500000;stroke-linejoin:round"
         d="M 8.7185878,4.0337352 L -2.2072895,0.016013256 L 8.7185884,-4.0017078 C 6.9730900,-1.6296469 6.9831476,1.6157441 8.7185878,4.0337352 z "
         transform="scale(0.6) translate(0,0)" /></marker><marker
       inkscape:stockid="Arrow1Lstart"
       orient="auto"
       refY="0.0"
       refX="0.0"
       id="Arrow1Lstart"
       style="overflow:visible"><path
         id="path6034"
         d="M 0.0,0.0 L 5.0,-5.0 L -12.5,0.0 L 5.0,5.0 L 0.0,0.0 z "
         style="fill-rule:evenodd;stroke:#000000;stroke-width:1.0pt"
         transform="scale(0.8) translate(12.5,0)" /></marker><marker
       inkscape:stockid="Arrow2Lstart"
       orient="auto"
       refY="0.0"
       refX="0.0"
       id="Arrow2Lstart"
       style="overflow:visible"><path
         id="path6052"
         style="fill-rule:evenodd;stroke-width:0.62500000;stroke-linejoin:round"
         d="M 8.7185878,4.0337352 L -2.2072895,0.016013256 L 8.7185884,-4.0017078 C 6.9730900,-1.6296469 6.9831476,1.6157441 8.7185878,4.0337352 z "
         transform="scale(1.1) translate(1,0)" /></marker><marker
       inkscape:stockid="Arrow2Lend"
       orient="auto"
       refY="0.0"
       refX="0.0"
       id="Arrow2Lend"
       style="overflow:visible;"><path
         id="path6055"
         style="fill-rule:evenodd;stroke-width:0.62500000;stroke-linejoin:round;"
         d="M 8.7185878,4.0337352 L -2.2072895,0.016013256 L 8.7185884,-4.0017078 C 6.9730900,-1.6296469 6.9831476,1.6157441 8.7185878,4.0337352 z "
         transform="scale(1.1) rotate(180) translate(1,0)" /></marker><marker
       inkscape:stockid="Arrow1Lend"
       orient="auto"
       refY="0.0"
       refX="0.0"
       id="Arrow1Lend"
       style="overflow:visible;"><path
         id="path6037"
         d="M 0.0,0.0 L 5.0,-5.0 L -12.5,0.0 L 5.0,5.0 L 0.0,0.0 z "
         style="fill-rule:evenodd;stroke:#000000;stroke-width:1.0pt;"
         transform="scale(0.8) rotate(180) translate(12.5,0)" /></marker><marker
       markerUnits="strokeWidth"
       refX="6.3333335"
       orient="auto"
       id="mrkr13-55"
       style="fill:#000000;fill-opacity:1;stroke:#000000;stroke-width:0.46153846;stroke-opacity:1"><use
         transform="scale(2.1666667,2.1666667)"
         id="use7724"
         x="0"
         y="0"
         width="3"
         height="3" /></marker></defs><path
     inkscape:connector-curvature="0"
     style="fill:#33cc33;fill-opacity:1;fill-rule:nonzero;stroke:#000000;stroke-width:2.00000000999999994;stroke-linecap:butt;stroke-linejoin:round;stroke-miterlimit:3;stroke-opacity:1;stroke-dasharray:none;marker-start:url(#Arrow1Mstart);marker-end:none;opacity:1"
     id="path7832"
     d="M 299.94266,88.19617 299.63401,88.10833 267.0627,78.838981" /><g
     transform="matrix(-0.87434425,0,0,1.244136,637.58907,-262.22251)"
     id="shape3-4"><title
       id="title7739">Sheet.3</title><path
       d="m 0,595.28 129.87,-0.63 2.59,-3.26 L 355.97,508.82 314.58,495.93 0,595.28 z"
       id="path7741"
       style="fill:#d9d9d9;stroke:#000000;stroke-width:0.72000003;stroke-linecap:round;stroke-linejoin:round" /></g><g
     transform="matrix(0.87434425,0,0,1.244136,0.62578684,-262.22251)"
     id="shape4-6"><title
       id="title7744">Sheet.4</title><path
       d="m 0,595.28 129.87,-0.63 2.59,-3.26 L 355.97,508.82 314.58,495.93 0,595.28 z"
       id="path7746"
       style="fill:#d9d9d9;stroke:#000000;stroke-width:0.72000003;stroke-linecap:round;stroke-linejoin:round" /></g><g
     transform="matrix(-0.87434425,0,0,1.244136,636.1546,-262.22251)"
     id="shape5-8"><title
       id="title7749">Sheet.5</title><path
       d="m 0,231.02 0,364.26 314.58,-99.35 a 132.466,132.466 -180 0 0 0,-82.78 86.0959,86.0959 0 0 1 0,-66.23 71.2749,71.2749 -180 0 0 0,-60.27 L 33.11,231.02 0,231.02 z"
       id="path7751"
       style="fill:#bfbfbf;stroke:#000000;stroke-width:0.72000003;stroke-linecap:round;stroke-linejoin:round"
       inkscape:connector-curvature="0" /></g><path
     d="m 1.3865319,25.197843 0,453.188907 L 276.43775,354.78184 a 115.82089,164.80572 0 0 0 0,-102.98957 75.277455,107.11501 0 0 1 0,-82.39907 62.318799,88.675667 0 0 0 0,-74.984072 L 30.33607,25.197843 l -28.9495381,0 z"
     id="path7756"
     style="fill:#bfbfbf;stroke:#000000;stroke-width:0.7509442;stroke-linecap:round;stroke-linejoin:round"
     inkscape:connector-curvature="0" /><g
     transform="matrix(0.82619866,-0.4071528,0.2861357,1.1756279,-53.891938,-248.36744)"
     id="shape7-12"><title
       id="title7759">Sheet.7</title><path
       d="m 0,595.28 236.54,0"
       id="path7761"
       style="stroke:#000000;stroke-width:1.20000005;stroke-linecap:round;stroke-linejoin:round" /></g><g
     transform="matrix(0.82017536,-0.43110558,0.30296904,1.1670571,-63.912972,-221.17287)"
     id="shape8-15"><title
       id="title7764">Sheet.8</title><path
       d="m 0,595.28 238.28,0"
       id="path7766"
       style="stroke:#000000;stroke-width:1.20000005;stroke-linecap:round;stroke-linejoin:round" /></g><g
     transform="matrix(0.87434425,0,0,1.244136,0.62578684,-262.99497)"
     id="group14-18"><title
       id="title7769">Sheet.14</title><g
       transform="translate(0,-363.631)"
       id="shape15-19"><title
         id="title7772">Sheet.15</title><path
         d="m 0,595.28 33.11,0"
         id="path7774"
         style="stroke:#000000;stroke-width:1.20000005;stroke-linecap:round;stroke-linejoin:round" /></g><g
       transform="translate(33.1138,-356.319)"
       id="shape16-22"><title
         id="title7777">Sheet.16</title><path
         d="m 0,587.96 14.07,3.14 8.28,4.18"
         id="path7779"
         style="stroke:#000000;stroke-width:1.20000005;stroke-linecap:round;stroke-linejoin:round" /></g><g
       transform="translate(18.2126,-55.4913)"
       id="shape17-25"><title
         id="title7782">Sheet.17</title><path
         d="m 37.25,294.45 5.8,7.31 4.97,11.49 0,49.09 0,3.14 -2.49,3.13 -33.11,15.67 -5.8,7.31 -4.14,18.8 -2.48,30.29 0,97.15 4.97,47 5.79,10.45"
         id="path7784"
         style="stroke:#000000;stroke-width:1.20000005;stroke-linecap:round;stroke-linejoin:round" /></g><g
       transform="translate(4.13923,0)"
       id="shape18-28"><title
         id="title7787">Sheet.18</title><path
         d="m 24.84,539.78 99.34,29.25 4.14,5.22 0,17.76 -2.59,3.27 -125.73,0"
         id="path7789"
         style="stroke:#000000;stroke-width:1.20000005;stroke-linecap:round;stroke-linejoin:round" /></g></g><g
     transform="matrix(-0.82619866,-0.4071528,-0.2861357,1.1756279,692.10706,-248.36744)"
     id="shape22-31"><title
       id="title7792">Sheet.22</title><path
       d="m 0,595.28 236.54,0"
       id="path7794"
       style="stroke:#000000;stroke-width:1.20000005;stroke-linecap:round;stroke-linejoin:round" /></g><g
     transform="matrix(-0.82017536,-0.43110558,-0.30296904,1.1670571,702.12792,-221.17287)"
     id="shape23-34"><title
       id="title7797">Sheet.23</title><path
       d="m 0,595.28 238.28,0"
       id="path7799"
       style="stroke:#000000;stroke-width:1.20000005;stroke-linecap:round;stroke-linejoin:round" /></g><g
     transform="matrix(-0.87434425,0,0,1.244136,637.58907,-262.99497)"
     id="group30-37"><title
       id="title7802">Sheet.30</title><g
       transform="translate(0,-363.631)"
       id="shape31-38"><title
         id="title7805">Sheet.31</title><path
         d="m 0,595.28 33.11,0"
         id="path7807"
         style="stroke:#000000;stroke-width:1.20000005;stroke-linecap:round;stroke-linejoin:round" /></g><g
       transform="translate(33.1138,-356.319)"
       id="shape32-41"><title
         id="title7810">Sheet.32</title><path
         d="m 0,587.96 14.07,3.14 8.28,4.18"
         id="path7812"
         style="stroke:#000000;stroke-width:1.20000005;stroke-linecap:round;stroke-linejoin:round" /></g><g
       transform="translate(18.2126,-55.4913)"
       id="shape33-44"><title
         id="title7815">Sheet.33</title><path
         d="m 37.25,294.45 5.8,7.31 4.97,11.49 0,49.09 0,3.14 -2.49,3.13 -33.11,15.67 -5.8,7.31 -4.14,18.8 -2.48,30.29 0,97.15 4.97,47 5.79,10.45"
         id="path7817"
         style="stroke:#000000;stroke-width:1.20000005;stroke-linecap:round;stroke-linejoin:round" /></g><g
       transform="translate(4.13923,0)"
       id="shape34-47"><title
         id="title7820">Sheet.34</title><path
         d="m 24.84,539.78 99.34,29.25 4.14,5.22 0,17.76 -2.59,3.27 -125.73,0"
         id="path7822"
         style="stroke:#000000;stroke-width:1.20000005;stroke-linecap:round;stroke-linejoin:round" /></g></g><g
     transform="translate(138.23753,-655.183)"
     id="group40-61"><title
       id="title7835">Sheet.40</title></g><g
     transform="translate(125.26503,-677.866)"
     id="group41-62"><title
       id="title7838">Sheet.41</title></g><g
     transform="matrix(-0.84913188,-0.29661622,-0.20845365,1.2082604,736.34276,-310.67775)"
     id="shape42-63"><title
       id="title7841">Sheet.42</title><path
       d="m 0,595.28 336.71,0"
       id="path7843"
       style="stroke:#000000;stroke-width:1.20000005;stroke-linecap:round;stroke-linejoin:round" /></g><g
     transform="matrix(-0.87091433,0.11009242,0.0773699,1.2392554,533.62692,-615.02961)"
     id="shape123-66"><title
       id="title7846">Sheet.123</title><path
       d="m 0,595.28 290.89,0"
       id="path7848"
       style="stroke:#000000;stroke-width:1.20000005;stroke-linecap:round;stroke-linejoin:round" /></g><g
     transform="matrix(0.84913188,-0.29661622,0.20845365,1.2082604,-98.127899,-310.67775)"
     id="shape150-69"><title
       id="title7851">Sheet.150</title><path
       d="m 0,595.28 336.71,0"
       id="path7853"
       style="stroke:#000000;stroke-width:1.20000005;stroke-linecap:round;stroke-linejoin:round" /></g><g
     transform="matrix(0.87091433,0.11009242,-0.0773699,1.2392554,104.58794,-615.02961)"
     id="shape151-72"><title
       id="title7856">Sheet.151</title><path
       d="m 0,595.28 290.89,0"
       id="path7858"
       style="stroke:#000000;stroke-width:1.20000005;stroke-linecap:round;stroke-linejoin:round" /></g><g
     transform="matrix(-0.85775469,-0.24120661,0.16951332,-1.2205301,210.96329,831.13538)"
     id="shape160-75"><title
       id="title7861">Sheet.160</title><path
       d="m 0,595.28 329.1,0"
       id="path7863"
       style="stroke:#000000;stroke-width:1.20000005;stroke-linecap:round;stroke-linejoin:round" /></g><g
     transform="matrix(0.85775528,-0.24120235,-0.16951032,-1.2205309,427.25157,831.13538)"
     id="shape169-78"><title
       id="title7866">Sheet.169</title><path
       d="m 0,595.28 329.1,0"
       id="path7868"
       style="stroke:#000000;stroke-width:1.20000005;stroke-linecap:round;stroke-linejoin:round" /></g><g
     transform="matrix(0.8445517,0.32200609,-0.22629695,1.2017431,358.10458,-622.71725)"
     id="shape13-81"><title
       id="title7871">Sheet.13</title><ellipse
       cx="9.3622599"
       cy="590.59399"
       rx="9.3622599"
       ry="4.6811299"
       id="ellipse7873"
       style="fill:#ffffff;stroke:#000000;stroke-width:0.72000003;stroke-linecap:round;stroke-linejoin:round"
       d="m 18.72452,590.59399 c 0,2.58532 -4.191627,4.68113 -9.3622601,4.68113 C 4.1916265,595.27512 0,593.17931 0,590.59399 c 0,-2.58531 4.1916265,-4.68113 9.3622599,-4.68113 5.1706331,0 9.3622601,2.09582 9.3622601,4.68113 z" /></g><g
     transform="matrix(0,-1.244136,0.87434425,0,-295.90317,88.248044)"
     id="shape19-83"><title
       id="title7876">Sheet.19</title><path
       d="m 0,595.28 25.71,0"
       id="path7878"
       style="stroke:#000000;stroke-width:0.72000003;stroke-linecap:round;stroke-linejoin:round" /></g><g
     transform="matrix(0,-1.244136,0.87434425,0,-280.37918,93.674964)"
     id="shape20-86"><title
       id="title7881">Sheet.20</title><path
       d="M 1.2971123,595.69016 25.71,595.28"
       id="path7883"
       style="stroke:#000000;stroke-width:0.72000003;stroke-linecap:round;stroke-linejoin:round"
       inkscape:connector-curvature="0"
       sodipodi:nodetypes="cc" /></g><g
     transform="matrix(0.84908966,0.29686083,-0.20862556,1.2082003,348.76221,-662.95137)"
     id="shape21-89"><title
       id="title7886">Sheet.21</title><path
       d="m 0,595.28 a 18.7955,18.7727 0 0 1 18.28,0"
       id="path7888"
       style="stroke:#000000;stroke-width:0.72000003;stroke-linecap:round;stroke-linejoin:round" /></g><g
     transform="matrix(0.8445517,0.32200609,-0.22629695,1.2017431,334.10121,-628.42037)"
     id="shape24-92"><title
       id="title7891">Sheet.24</title><ellipse
       cx="11.37"
       cy="589.591"
       rx="11.37"
       ry="5.6849999"
       id="ellipse7893"
       style="fill:#ffffff;stroke:#000000;stroke-width:0.72000003;stroke-linecap:round;stroke-linejoin:round"
       d="m 22.74,589.591 c 0,3.13974 -5.090523,5.685 -11.37,5.685 -6.2794777,0 -11.37,-2.54526 -11.37,-5.685 0,-3.13974 5.0905223,-5.685 11.37,-5.685 6.279477,0 11.37,2.54526 11.37,5.685 z" /></g><g
     transform="matrix(0,-1.244136,0.87434425,0,-319.65385,81.600625)"
     id="shape25-94"><title
       id="title7896">Sheet.25</title><path
       d="M 0.57649433,595.07492 31.22,595.28"
       id="path7898"
       style="stroke:#000000;stroke-width:0.72000003;stroke-linecap:round;stroke-linejoin:round"
       inkscape:connector-curvature="0"
       sodipodi:nodetypes="cc" /></g><g
     transform="matrix(0,-1.244136,0.87434425,0,-300.80124,88.190814)"
     id="shape26-97"><title
       id="title7901">Sheet.26</title><path
       d="M 0.8647415,595.28 31.22,595.28"
       id="path7903"
       style="stroke:#000000;stroke-width:0.72000003;stroke-linecap:round;stroke-linejoin:round"
       inkscape:connector-curvature="0"
       sodipodi:nodetypes="cc" /></g><g
     transform="matrix(0.84908966,0.29686083,-0.20862556,1.2082003,325.01153,-676.45771)"
     id="shape27-100"><title
       id="title7906">Sheet.27</title><path
       d="m 0,595.28 a 22.8263,22.7986 0 0 1 22.2,0"
       id="path7908"
       style="stroke:#000000;stroke-width:0.72000003;stroke-linecap:round;stroke-linejoin:round" /></g><g
     id="N0EMSLProbe"
     inkscape:label=""><g
       id="shape9-103"
       transform="matrix(0.8445517,0.32200609,-0.22629695,1.2017431,378.55899,-619.51734)"><title
         id="title7911">Sheet.9</title><ellipse
         d="m 17.1106,590.99799 c 0,2.36248 -3.830339,4.27765 -8.5553002,4.27765 C 3.8303382,595.27564 0,593.36047 0,590.99799 c 0,-2.36248 3.8303382,-4.27765 8.5552998,-4.27765 4.7249612,0 8.5553002,1.91517 8.5553002,4.27765 z"
         style="fill:#ffffff;stroke:#000000;stroke-width:0.72000003;stroke-linecap:round;stroke-linejoin:round"
         id="ellipse7913"
         ry="4.2776499"
         rx="8.5552998"
         cy="590.99799"
         cx="8.5552998" /></g><g
       id="shape10-105"
       transform="matrix(0,-1.244136,0.87434425,0,-275.54931,91.827422)"><title
         id="title7916">Sheet.10</title><path
         style="stroke:#000000;stroke-width:0.72000003;stroke-linecap:round;stroke-linejoin:round"
         id="path7918"
         d="m 0,595.28 23.49,0" /></g><g
       id="shape11-108"
       transform="matrix(0,-1.244136,0.87434425,0,-261.36395,96.787792)"><title
         id="title7921">Sheet.11</title><path
         style="stroke:#000000;stroke-width:0.72000003;stroke-linecap:round;stroke-linejoin:round"
         id="path7923"
         d="m 0,595.28 23.49,0" /></g><g
       id="shape12-111"
       transform="matrix(0.84908966,0.29686083,-0.20862556,1.2082003,369.11607,-656.61374)"><title
         id="title7926">Sheet.12</title><path
         style="stroke:#000000;stroke-width:0.72000003;stroke-linecap:round;stroke-linejoin:round"
         id="path7928"
         d="m 0,595.28 a 17.1755,17.1547 0 0 1 16.71,0" /></g></g><g
     transform="matrix(0.8445517,0.32200609,-0.22629695,1.2017431,294.04138,-638.97562)"
     id="shape28-114"><title
       id="title7931">Sheet.28</title><ellipse
       cx="11.5563"
       cy="589.49701"
       rx="11.5563"
       ry="5.7781401"
       id="ellipse7933"
       style="fill:#ffffff;stroke:#000000;stroke-width:0.72000003;stroke-linecap:round;stroke-linejoin:round"
       d="m 23.1126,589.49701 c 0,3.19118 -5.173931,5.77814 -11.5563,5.77814 C 5.1739318,595.27515 0,592.68819 0,589.49701 c 0,-3.19118 5.1739318,-5.77814 11.5563,-5.77814 6.382369,0 11.5563,2.58696 11.5563,5.77814 z" /></g><g
     transform="matrix(0,-1.244136,0.87434425,0,-359.6892,70.957041)"
     id="shape29-116"><title
       id="title7936">Sheet.29</title><path
       d="M 0.72061792,595.07492 31.73,595.28"
       id="path7938"
       style="stroke:#000000;stroke-width:0.72000003;stroke-linecap:round;stroke-linejoin:round"
       inkscape:connector-curvature="0"
       sodipodi:nodetypes="cc" /></g><g
     transform="matrix(0,-1.244136,0.87434425,0,-340.52795,77.656714)"
     id="shape35-119"><title
       id="title7941">Sheet.35</title><path
       d="m 0,595.28 31.73,0"
       id="path7943"
       style="stroke:#000000;stroke-width:0.72000003;stroke-linecap:round;stroke-linejoin:round" /></g><g
     transform="matrix(0.84908966,0.29686083,-0.20862556,1.2082003,284.9753,-687.73704)"
     id="shape36-122"><title
       id="title7946">Sheet.36</title><path
       d="m 0,595.28 a 23.2002,23.1721 0 0 1 22.57,0"
       id="path7948"
       style="stroke:#000000;stroke-width:0.72000003;stroke-linecap:round;stroke-linejoin:round" /></g><g
     transform="matrix(0.8445517,0.32200609,-0.22629695,1.2017431,266.48555,-645.12425)"
     id="shape37-125"><title
       id="title7951">Sheet.37</title><ellipse
       cx="13.6999"
       cy="588.42603"
       rx="13.6999"
       ry="6.8499398"
       id="ellipse7953"
       style="fill:#ffffff;stroke:#000000;stroke-width:0.72000003;stroke-linecap:round;stroke-linejoin:round"
       d="m 27.399799,588.42603 c 0,3.78311 -6.133654,6.84994 -13.699899,6.84994 C 6.133654,595.27597 0,592.20914 0,588.42603 c 0,-3.78312 6.133654,-6.84994 13.6999,-6.84994 7.566245,0 13.699899,3.06682 13.699899,6.84994 z"
       sodipodi:cx="13.6999"
       sodipodi:cy="588.42603"
       sodipodi:rx="13.6999"
       sodipodi:ry="6.8499398" /></g><g
     transform="matrix(0,-1.244136,0.87434425,0,-386.97574,67.800669)"
     id="shape43-127"><title
       id="title7956">Sheet.43</title><path
       d="M 3.3148424,595.07492 37.62,595.28"
       id="path7958"
       style="stroke:#000000;stroke-width:0.72000003;stroke-linecap:round;stroke-linejoin:round"
       inkscape:connector-curvature="0"
       sodipodi:nodetypes="cc" /></g><g
     transform="matrix(0,-1.244136,0.87434425,0,-364.26027,75.74199)"
     id="shape44-130"><title
       id="title7961">Sheet.44</title><path
       d="M 5.0443254,595.69016 37.62,595.28"
       id="path7963"
       style="stroke:#000000;stroke-width:0.72000003;stroke-linecap:round;stroke-linejoin:round"
       inkscape:connector-curvature="0"
       sodipodi:nodetypes="cc" /></g><g
     transform="matrix(0.84908966,0.29686083,-0.20862556,1.2082003,257.68964,-698.21765)"
     id="shape45-133"><title
       id="title7966">Sheet.45</title><path
       d="m 0,595.28 a 27.5037,27.4703 0 0 1 26.75,0"
       id="path7968"
       style="stroke:#000000;stroke-width:0.72000003;stroke-linecap:round;stroke-linejoin:round" /></g><g
     transform="matrix(0.8445517,0.32200609,-0.22629695,1.2017431,232.5811,-650.23946)"
     id="shape46-136"><title
       id="title7971">Sheet.46</title><ellipse
       cx="16.7943"
       cy="586.87799"
       rx="16.7943"
       ry="8.3971596"
       id="ellipse7973"
       style="fill:#ffffff;stroke:#000000;stroke-width:0.72000003;stroke-linecap:round;stroke-linejoin:round"
       d="m 33.5886,586.87799 c 0,4.63762 -7.519064,8.39716 -16.7943,8.39716 C 7.5190643,595.27515 0,591.51561 0,586.87799 c 0,-4.63762 7.5190643,-8.39716 16.7943,-8.39716 9.275236,0 16.7943,3.75954 16.7943,8.39716 z"
       sodipodi:cx="16.7943"
       sodipodi:cy="586.87799"
       sodipodi:rx="16.7943"
       sodipodi:ry="8.3971596" /></g><g
     transform="matrix(0,-1.244136,0.87434425,0,-420.4911,59.229813)"
     id="shape47-138"><title
       id="title7976">Sheet.47</title><path
       d="M 2.0177302,594.86984 46.12,595.28"
       id="path7978"
       style="stroke:#000000;stroke-width:0.72000003;stroke-linecap:round;stroke-linejoin:round"
       inkscape:connector-curvature="0"
       sodipodi:nodetypes="cc" /></g><g
     transform="matrix(0,-1.244136,0.87434425,0,-392.64411,68.966423)"
     id="shape48-141"><title
       id="title7981">Sheet.48</title><path
       d="M 3.6030896,595.69016 46.12,595.28"
       id="path7983"
       style="stroke:#000000;stroke-width:0.72000003;stroke-linecap:round;stroke-linejoin:round"
       inkscape:connector-curvature="0"
       sodipodi:nodetypes="cc" /></g><g
     transform="matrix(0.84908966,0.29686083,-0.20862556,1.2082003,224.17428,-717.35992)"
     id="shape49-144"><title
       id="title7986">Sheet.49</title><path
       d="m 0,595.28 a 33.716,33.6751 0 0 1 32.8,0"
       id="path7988"
       style="stroke:#000000;stroke-width:0.72000003;stroke-linecap:round;stroke-linejoin:round" /></g><path
     inkscape:connector-curvature="0"
     style="stroke:#0066ff;stroke-width:2;stroke-linecap:round;stroke-linejoin:round;stroke-miterlimit:3;stroke-dasharray:none"
     id="N0EMSL"
     d="M 251.40619,98.729136 250.98053,365.88177"
     inkscape:label="" /><path
     inkscape:connector-curvature="0"
     style="stroke:#ff3300;stroke-width:2;stroke-linecap:round;stroke-linejoin:round;stroke-miterlimit:3;stroke-dasharray:none"
     id="F70EL"
     d="m 232.56978,96.077712 48.67094,44.231408"
     inkscape:label="" /><path
     inkscape:connector-curvature="0"
     style="stroke:#ff3300;stroke-width:2;stroke-linecap:round;stroke-linejoin:round;stroke-miterlimit:3;stroke-dasharray:none"
     id="B70EL"
     d="M 207.58182,89.985226 145.61741,110.26503"
     inkscape:label="" /><path
     sodipodi:nodetypes="cc"
     inkscape:connector-curvature="0"
     style="stroke:#33cc33;stroke-width:2;stroke-linecap:round;stroke-linejoin:round;stroke-miterlimit:3;stroke-dasharray:6.00000004, 6.00000004;stroke-dashoffset:0"
     id="F58ELUL"
     d="m 171.31026,79.892219 18.90103,57.777901"
     inkscape:label="" /><path
     inkscape:connector-curvature="0"
     style="stroke:#33cc33;stroke-width:2;stroke-linecap:round;stroke-linejoin:round;stroke-miterlimit:3;stroke-dasharray:6.00000003, 6.00000003;stroke-dashoffset:0"
     id="F58ELUL2"
     d="m 190.21958,137.67779 21.19377,-30.15738"
     inkscape:label="" /><path
     sodipodi:nodetypes="cc"
     inkscape:connector-curvature="0"
     style="stroke:#663300;stroke-width:2;stroke-linecap:round;stroke-linejoin:round;stroke-miterlimit:3;stroke-dasharray:none"
     id="F42EL"
     d="M 145.24982,75.747466 269.53328,350.29085"
     inkscape:label="" /><path
     d="M 144.71247,75.558189 66.858623,413.39697"
     id="B42EL"
     style="stroke:#663300;stroke-width:2.00000001;stroke-linecap:round;stroke-linejoin:round;stroke-miterlimit:3;stroke-dasharray:none"
     inkscape:connector-curvature="0"
     sodipodi:nodetypes="cc"
     inkscape:label="" /><path
     inkscape:connector-curvature="0"
     style="stroke:#ff3300;stroke-width:2;stroke-linecap:round;stroke-linejoin:round;stroke-miterlimit:3;stroke-dasharray:none"
     id="F70ER"
     d="M 409.30753,93.724678 357.01793,141.0345"
     inkscape:label="" /><path
     sodipodi:nodetypes="cc"
     inkscape:connector-curvature="0"
     style="stroke:#ff3300;stroke-width:2;stroke-linecap:round;stroke-linejoin:round;stroke-miterlimit:3;stroke-dasharray:none"
     id="B70ER"
     d="M 490.34183,111.89009 431.47468,89.329103"
     inkscape:label="" /><g
     id="N0EMSRProbe"
     inkscape:label=""><g
       id="shape62-177"
       transform="matrix(0.8445517,-0.32200609,0.22629695,1.2017431,247.39249,-613.65994)"><title
         id="title8041">Sheet.62</title><ellipse
         d="m 17.1106,590.99799 c 0,2.36248 -3.830339,4.27765 -8.5553002,4.27765 C 3.8303382,595.27564 0,593.36047 0,590.99799 c 0,-2.36248 3.8303382,-4.27765 8.5552998,-4.27765 4.7249612,0 8.5553002,1.91517 8.5553002,4.27765 z"
         style="fill:#ffffff;stroke:#000000;stroke-width:0.72000003;stroke-linecap:round;stroke-linejoin:round"
         id="ellipse8043"
         ry="4.2776499"
         rx="8.5552998"
         cy="590.99799"
         cx="8.5552998" /></g><g
       id="shape63-179"
       transform="matrix(0,-1.244136,0.87434425,0,-139.12275,97.290423)"><title
         id="title8046">Sheet.63</title><path
         sodipodi:nodetypes="cc"
         inkscape:connector-curvature="0"
         style="stroke:#000000;stroke-width:0.72000003;stroke-linecap:round;stroke-linejoin:round"
         id="path8048"
         d="M 0.8647415,594.86984 23.49,595.28" /></g><g
       id="shape64-182"
       transform="matrix(0,-1.244136,0.87434425,0,-124.83684,91.480308)"><title
         id="title8051">Sheet.64</title><path
         style="stroke:#000000;stroke-width:0.72000003;stroke-linecap:round;stroke-linejoin:round"
         id="path8053"
         d="m 0,595.28 23.49,0" /></g><g
       id="shape65-185"
       transform="matrix(0.84069076,-0.34185107,0.24024345,1.1962492,238.34215,-644.03801)"><title
         id="title8056">Sheet.65</title><path
         style="stroke:#000000;stroke-width:0.72000003;stroke-linecap:round;stroke-linejoin:round"
         id="path8058"
         d="m 0,595.28 a 17.4698,17.1547 0 0 1 16.99,0" /></g></g><g
     transform="matrix(0.8445517,-0.32200609,0.22629695,1.2017431,269.06661,-619.29961)"
     id="shape66-188"><title
       id="title8061">Sheet.66</title><ellipse
       cx="9.1379204"
       cy="590.70697"
       rx="9.1379204"
       ry="4.5689602"
       id="ellipse8063"
       style="fill:#ffffff;stroke:#000000;stroke-width:0.72000003;stroke-linecap:round;stroke-linejoin:round"
       d="m 18.275841,590.70697 c 0,2.52337 -4.091187,4.56896 -9.1379206,4.56896 C 4.0911863,595.27593 0,593.23034 0,590.70697 c 0,-2.52337 4.0911863,-4.56896 9.1379204,-4.56896 5.0467336,0 9.1379206,2.04559 9.1379206,4.56896 z" /></g><g
     transform="matrix(0,-1.244136,0.87434425,0,-117.49934,91.349673)"
     id="shape67-190"><title
       id="title8066">Sheet.67</title><path
       d="m 0,595.28 25.09,0"
       id="path8068"
       style="stroke:#000000;stroke-width:0.72000003;stroke-linecap:round;stroke-linejoin:round" /></g><g
     transform="matrix(0,-1.244136,0.87434425,0,-102.2409,85.145169)"
     id="shape68-193"><title
       id="title8071">Sheet.68</title><path
       d="m 0,595.28 25.09,0"
       id="path8073"
       style="stroke:#000000;stroke-width:0.72000003;stroke-linecap:round;stroke-linejoin:round" /></g><g
     transform="matrix(0.84069076,-0.34185107,0.24024345,1.1962492,259.96556,-651.96814)"
     id="shape69-196"><title
       id="title8076">Sheet.69</title><path
       d="m 0,595.28 a 18.6595,18.3229 0 0 1 18.15,0"
       id="path8078"
       style="stroke:#000000;stroke-width:0.72000003;stroke-linecap:round;stroke-linejoin:round" /></g><g
     transform="matrix(0.8445517,-0.32200609,0.22629695,1.2017431,288.06786,-623.24793)"
     id="shape70-199"><title
       id="title8081">Sheet.70</title><ellipse
       cx="10.7475"
       cy="589.90198"
       rx="10.7475"
       ry="5.3737302"
       id="ellipse8083"
       style="fill:#ffffff;stroke:#000000;stroke-width:0.72000003;stroke-linecap:round;stroke-linejoin:round"
       d="m 21.495001,589.90198 c 0,2.96783 -4.81182,5.37373 -10.747501,5.37373 -5.9356802,0 -10.7475,-2.4059 -10.7475,-5.37373 0,-2.96783 4.8118198,-5.37373 10.7475,-5.37373 5.935681,0 10.747501,2.4059 10.747501,5.37373 z"
       sodipodi:cx="10.7475"
       sodipodi:cy="589.90198"
       sodipodi:rx="10.7475"
       sodipodi:ry="5.3737302" /></g><g
     transform="matrix(0,-1.244136,0.87434425,0,-98.63904,88.570275)"
     id="shape71-201"><title
       id="title8086">Sheet.71</title><path
       d="M 3.1707188,594.86984 29.51,595.28"
       id="path8088"
       style="stroke:#000000;stroke-width:0.72000003;stroke-linecap:round;stroke-linejoin:round"
       inkscape:connector-curvature="0"
       sodipodi:nodetypes="cc" /></g><g
     transform="matrix(0,-1.244136,0.87434425,0,-80.6926,81.272173)"
     id="shape72-204"><title
       id="title8091">Sheet.72</title><path
       d="M 1.8736066,594.86984 29.51,595.28"
       id="path8093"
       style="stroke:#000000;stroke-width:0.72000003;stroke-linecap:round;stroke-linejoin:round"
       inkscape:connector-curvature="0"
       sodipodi:nodetypes="cc" /></g><g
     transform="matrix(0.84069076,-0.34185107,0.24024345,1.1962492,278.82604,-660.24786)"
     id="shape73-207"><title
       id="title8096">Sheet.73</title><path
       d="m 0,595.28 a 21.9461,21.5503 0 0 1 21.35,0"
       id="path8098"
       style="stroke:#000000;stroke-width:0.72000003;stroke-linecap:round;stroke-linejoin:round" /></g><g
     transform="matrix(0.8445517,-0.32200609,0.22629695,1.2017431,322.01952,-632.84328)"
     id="shape74-210"><title
       id="title8101">Sheet.74</title><ellipse
       cx="10.8234"
       cy="589.86401"
       rx="10.8234"
       ry="5.4116902"
       id="ellipse8103"
       style="fill:#ffffff;stroke:#000000;stroke-width:0.72000003;stroke-linecap:round;stroke-linejoin:round"
       d="m 21.646799,589.86401 c 0,2.9888 -4.845801,5.41169 -10.823399,5.41169 C 4.845801,595.2757 0,592.85281 0,589.86401 c 0,-2.98879 4.845801,-5.41169 10.8234,-5.41169 5.977598,0 10.823399,2.4229 10.823399,5.41169 z" /></g><g
     transform="matrix(0,-1.244136,0.87434425,0,-64.694111,76.935115)"
     id="shape75-212"><title
       id="title8106">Sheet.75</title><path
       d="M 1.1529887,594.86985 29.72,595.28"
       id="path8108"
       style="stroke:#000000;stroke-width:0.72000003;stroke-linecap:round;stroke-linejoin:round"
       inkscape:connector-curvature="0"
       sodipodi:nodetypes="cc" /></g><g
     transform="matrix(0,-1.244136,0.87434425,0,-46.620891,69.586003)"
     id="shape76-215"><title
       id="title8111">Sheet.76</title><path
       d="m 0,595.28 29.72,0"
       id="path8113"
       style="stroke:#000000;stroke-width:0.72000003;stroke-linecap:round;stroke-linejoin:round" /></g><g
     transform="matrix(0.84069076,-0.34185107,0.24024345,1.1962492,312.77071,-672.14056)"
     id="shape77-218"><title
       id="title8116">Sheet.77</title><path
       d="m 0,595.28 a 22.1012,21.7025 0 0 1 21.5,0"
       id="path8118"
       style="stroke:#000000;stroke-width:0.72000003;stroke-linecap:round;stroke-linejoin:round" /></g><g
     transform="matrix(0.8445517,-0.32200609,0.22629695,1.2017431,346.97418,-637.97285)"
     id="shape78-221"><title
       id="title8121">Sheet.78</title><ellipse
       cx="12.2293"
       cy="589.16101"
       rx="12.2293"
       ry="6.1146402"
       id="ellipse8123"
       style="fill:#ffffff;stroke:#000000;stroke-width:0.72000003;stroke-linecap:round;stroke-linejoin:round"
       d="m 24.458599,589.16101 c 0,3.37702 -5.475244,6.11464 -12.229299,6.11464 C 5.4752439,595.27565 0,592.53803 0,589.16101 c 0,-3.37702 5.4752439,-6.11464 12.2293,-6.11464 6.754055,0 12.229299,2.73762 12.229299,6.11464 z" /></g><g
     transform="matrix(0,-1.244136,0.87434425,0,-39.862909,71.08021)"
     id="shape79-223"><title
       id="title8126">Sheet.79</title><path
       d="M 1.2971123,594.86984 33.58,595.28"
       id="path8128"
       style="stroke:#000000;stroke-width:0.72000003;stroke-linecap:round;stroke-linejoin:round"
       inkscape:connector-curvature="0"
       sodipodi:nodetypes="cc" /></g><g
     transform="matrix(0,-1.244136,0.87434425,0,-19.442005,62.775601)"
     id="shape80-226"><title
       id="title8131">Sheet.80</title><path
       d="m 0,595.28 33.58,0"
       id="path8133"
       style="stroke:#000000;stroke-width:0.72000003;stroke-linecap:round;stroke-linejoin:round" /></g><g
     transform="matrix(0.84069076,-0.34185107,0.24024345,1.1962492,337.60208,-682.80031)"
     id="shape81-229"><title
       id="title8136">Sheet.81</title><path
       d="m 0,595.28 a 24.972,24.5215 0 0 1 24.29,0"
       id="path8138"
       style="stroke:#000000;stroke-width:0.72000003;stroke-linecap:round;stroke-linejoin:round" /></g><g
     transform="matrix(0.8445517,-0.32200609,0.22629695,1.2017431,372.1824,-639.41978)"
     id="shape82-232"><title
       id="title8141">Sheet.82</title><ellipse
       cx="15.7389"
       cy="587.40601"
       rx="15.7389"
       ry="7.8694301"
       id="ellipse8143"
       style="fill:#ffffff;stroke:#000000;stroke-width:0.72000003;stroke-linecap:round;stroke-linejoin:round"
       d="m 31.4778,587.40601 c 0,4.34616 -7.046545,7.86943 -15.7389,7.86943 C 7.0465456,595.27544 0,591.75217 0,587.40601 c 0,-4.34617 7.0465456,-7.86943 15.7389,-7.86943 8.692355,0 15.7389,3.52326 15.7389,7.86943 z" /></g><g
     transform="matrix(0,-1.244136,0.87434425,0,-14.961848,67.820575)"
     id="shape83-234"><title
       id="title8146">Sheet.83</title><path
       d="M 2.3059773,594.86984 43.22,595.28"
       id="path8148"
       style="stroke:#000000;stroke-width:0.72000003;stroke-linecap:round;stroke-linejoin:round"
       inkscape:connector-curvature="0"
       sodipodi:nodetypes="cc" /></g><g
     transform="matrix(0,-1.244136,0.87434425,0,11.319454,57.133443)"
     id="shape84-237"><title
       id="title8151">Sheet.84</title><path
       d="m 0,595.28 43.22,0"
       id="path8153"
       style="stroke:#000000;stroke-width:0.72000003;stroke-linecap:round;stroke-linejoin:round" /></g><g
     transform="matrix(0.84069076,-0.34185107,0.24024345,1.1962492,362.50341,-698.05093)"
     id="shape85-240"><title
       id="title8156">Sheet.85</title><path
       d="m 0,595.28 a 32.1385,31.5588 0 0 1 31.26,0"
       id="path8158"
       style="stroke:#000000;stroke-width:0.72000003;stroke-linecap:round;stroke-linejoin:round" /></g><path
     inkscape:connector-curvature="0"
     style="stroke:#663300;stroke-width:2;stroke-linecap:round;stroke-linejoin:round;stroke-miterlimit:3;stroke-dasharray:none"
     id="F42ER"
     d="M 488.91128,74.284163 368.67355,348.97101"
     inkscape:label="" /><path
     inkscape:connector-curvature="0"
     style="stroke:#0066ff;stroke-width:2;stroke-linecap:round;stroke-linejoin:round;stroke-miterlimit:3;stroke-dasharray:none"
     id="N0EMSR"
     d="M 389.7292,99.660996 389.30354,366.81363"
     inkscape:label="" /><path
     inkscape:connector-curvature="0"
     style="stroke:#663300;stroke-width:2.00000001;stroke-linecap:round;stroke-linejoin:round;stroke-miterlimit:3;stroke-dasharray:none"
     id="B42ER"
     d="M 488.90742,74.292353 579.33925,408.92691"
     inkscape:label="" /><path
     inkscape:connector-curvature="0"
     style="stroke:#cc00cc;stroke-width:2.00000001;stroke-linecap:round;stroke-linejoin:round;stroke-miterlimit:3;stroke-dasharray:none"
     id="F22ER"
     d="M 517.52419,70.980725 475.24825,373.67302"
     inkscape:label="" /><path
     inkscape:connector-curvature="0"
     style="stroke:#cc00cc;stroke-width:2;stroke-linecap:round;stroke-linejoin:round;stroke-miterlimit:3;stroke-dasharray:none"
     id="B22ER"
     d="M 517.80201,70.976247 554.5603,398.35449"
     inkscape:label="" /><path
     sodipodi:nodetypes="cc"
     style="font-size:12px;fill:none;stroke:#33cc33;stroke-width:2;stroke-linecap:round;stroke-linejoin:round;stroke-miterlimit:3;stroke-dasharray:6.00000003, 6.00000003;stroke-dashoffset:0"
     id="B58ELUL"
     d="M 168.03653,79.751706 146.14338,131.67446"
     inkscape:connector-curvature="0"
     inkscape:label="" /><path
     style="font-size:12px;fill:none;stroke:#33cc33;stroke-width:2;stroke-linecap:round;stroke-linejoin:round;stroke-miterlimit:3;stroke-dasharray:6.00000003, 6.00000003;stroke-dashoffset:0"
     id="B58ELUL2"
     d="m 145.18315,132.13689 -21.05147,-30.7461"
     inkscape:connector-curvature="0"
     inkscape:label="" /><path
     style="font-size:12px;fill:none;stroke:#cc00cc;stroke-width:1.99999988;stroke-linecap:round;stroke-linejoin:round;stroke-miterlimit:3;stroke-dasharray:none"
     id="B22EL"
     d="M 112.94436,72.079594 81.148202,399.78781"
     inkscape:connector-curvature="0"
     inkscape:label="" /><path
     style="font-size:12px;fill:none;stroke:#cc00cc;stroke-width:2;stroke-linecap:round;stroke-linejoin:round;stroke-miterlimit:3;stroke-dasharray:none"
     id="F22EL"
     d="M 113.36688,73.143426 153.24135,375.16893"
     inkscape:connector-curvature="0"
     inkscape:label="" /><path
     style="font-size:12px;fill:none;stroke:#008000;stroke-width:2;stroke-linecap:round;stroke-linejoin:round;stroke-miterlimit:3;stroke-dasharray:none"
     id="B58ELWL2"
     d="M 144.89968,125.1904 123.84821,94.444297"
     inkscape:connector-curvature="0"
     inkscape:label="" /><path
     sodipodi:nodetypes="cc"
     style="font-size:12px;fill:none;stroke:#008000;stroke-width:2;stroke-linecap:round;stroke-linejoin:round;stroke-miterlimit:3;stroke-dasharray:none"
     id="B58ELWL"
     d="M 167.60276,70.876394 144.82207,124.8278"
     inkscape:connector-curvature="0"
     inkscape:label="" /><path
     style="font-size:12px;fill:none;stroke:#008000;stroke-width:2;stroke-linecap:round;stroke-linejoin:round;stroke-miterlimit:3;stroke-dasharray:none"
     id="F58ELWL"
     d="m 171.91771,69.945312 18.90102,58.538648"
     inkscape:connector-curvature="0"
     inkscape:label="" /><path
     style="font-size:12px;fill:none;stroke:#008000;stroke-width:2;stroke-linecap:round;stroke-linejoin:round;stroke-miterlimit:3;stroke-dasharray:none"
     id="F58ELWL2"
     d="M 191.45042,129.32414 212.64419,99.166756"
     inkscape:connector-curvature="0"
     inkscape:label="" /><path
     sodipodi:nodetypes="cc"
     inkscape:connector-curvature="0"
     style="font-size:12px;fill:none;stroke:#33cc33;stroke-width:2;stroke-linecap:round;stroke-linejoin:round;stroke-miterlimit:3;stroke-dasharray:6.00000004, 6.00000004;stroke-dashoffset:0"
     id="F58ELUR"
     d="M 463.38858,80.151399 444.48755,137.9293"
     inkscape:label="" /><path
     style="font-size:12px;fill:none;stroke:#33cc33;stroke-width:2;stroke-linecap:round;stroke-linejoin:round;stroke-miterlimit:3;stroke-dasharray:6.00000003, 6.00000003;stroke-dashoffset:0"
     id="F58ELUR2"
     d="M 444.47927,137.93697 423.2855,107.77959"
     inkscape:connector-curvature="0"
     inkscape:label="" /><path
     sodipodi:nodetypes="cc"
     style="font-size:12px;fill:none;stroke:#33cc33;stroke-width:2;stroke-linecap:round;stroke-linejoin:round;stroke-miterlimit:3;stroke-dasharray:6.00000003, 6.00000003;stroke-dashoffset:0"
     id="B58ELUR"
     d="m 466.66231,79.472966 21.89315,51.922754"
     inkscape:connector-curvature="0"
     inkscape:label="" /><path
     style="font-size:12px;fill:none;stroke:#33cc33;stroke-width:2;stroke-linecap:round;stroke-linejoin:round;stroke-miterlimit:3;stroke-dasharray:6.00000003, 6.00000003;stroke-dashoffset:0"
     id="B58ELUR2"
     d="m 489.5157,131.85815 21.05147,-30.7461"
     inkscape:connector-curvature="0"
     inkscape:label="" /><path
     style="font-size:12px;fill:none;stroke:#008000;stroke-width:2;stroke-linecap:round;stroke-linejoin:round;stroke-miterlimit:3;stroke-dasharray:none"
     id="B58ELWR2"
     d="M 489.79917,124.91166 510.85064,94.165557"
     inkscape:connector-curvature="0"
     inkscape:label="" /><path
     sodipodi:nodetypes="cc"
     style="font-size:12px;fill:none;stroke:#008000;stroke-width:2;stroke-linecap:round;stroke-linejoin:round;stroke-miterlimit:3;stroke-dasharray:none"
     id="B58ELWR"
     d="m 467.09608,70.597654 22.78069,53.951406"
     inkscape:connector-curvature="0"
     inkscape:label="" /><path
     style="font-size:12px;fill:none;stroke:#008000;stroke-width:2;stroke-linecap:round;stroke-linejoin:round;stroke-miterlimit:3;stroke-dasharray:none"
     id="F58ELWR"
     d="M 462.78114,70.204492 443.88011,128.74314"
     inkscape:connector-curvature="0"
     inkscape:label="" /><path
     style="font-size:12px;fill:none;stroke:#008000;stroke-width:2;stroke-linecap:round;stroke-linejoin:round;stroke-miterlimit:3;stroke-dasharray:none"
     id="F58ELWR2"
     d="M 443.24843,129.58332 422.05466,99.425936"
     inkscape:connector-curvature="0"
     inkscape:label="" /><path
     d="m 340.48632,88.19617 0.30865,-0.08784 32.57131,-9.269349"
     id="path14886"
     style="fill:#33cc33;fill-opacity:1;fill-rule:nonzero;stroke:#000000;stroke-width:2;stroke-linecap:butt;stroke-linejoin:round;stroke-miterlimit:3;stroke-opacity:1;stroke-dasharray:none;marker-start:url(#Arrow1Mstart);marker-end:none"
     inkscape:connector-curvature="0" /></svg>