<?xml version="1.0" encoding="UTF-8" standalone="no"?>
<!-- Created with Inkscape (http://www.inkscape.org/) -->

<svg
   xmlns:v="http://schemas.microsoft.com/visio/2003/SVGExtensions/"
   xmlns:dc="http://purl.org/dc/elements/1.1/"
   xmlns:cc="http://creativecommons.org/ns#"
   xmlns:rdf="http://www.w3.org/1999/02/22-rdf-syntax-ns#"
   xmlns:svg="http://www.w3.org/2000/svg"
   xmlns="http://www.w3.org/2000/svg"
   xmlns:sodipodi="http://sodipodi.sourceforge.net/DTD/sodipodi-0.dtd"
   xmlns:inkscape="http://www.inkscape.org/namespaces/inkscape"
   version="1.1"
   width="510.49274"
   height="388.2254"
   viewBox="0 0 510.49274 388.2254"
   id="svg5556"
   xml:space="preserve"
   style="font-size:12px;fill:none;stroke-linecap:square;stroke-miterlimit:3;overflow:visible"
   inkscape:version="0.48.4 r9939"
   sodipodi:docname="scheme2.svg"><sodipodi:namedview
     pagecolor="#ffffff"
     bordercolor="#666666"
     borderopacity="1"
     objecttolerance="10"
     gridtolerance="10"
     guidetolerance="10"
     inkscape:pageopacity="0"
     inkscape:pageshadow="2"
     inkscape:window-width="1920"
     inkscape:window-height="1025"
     id="namedview322"
     showgrid="false"
     inkscape:zoom="6.84816"
     inkscape:cx="236.22429"
     inkscape:cy="294.6367"
     inkscape:window-x="1278"
     inkscape:window-y="-3"
     inkscape:window-maximized="1"
     inkscape:current-layer="svg5556" /><metadata
     id="metadata6228"><rdf:RDF><cc:Work
         rdf:about=""><dc:format>image/svg+xml</dc:format><dc:type
           rdf:resource="http://purl.org/dc/dcmitype/StillImage" /><dc:title /></cc:Work></rdf:RDF></metadata><v:documentProperties
     v:viewMarkup="false"
     v:metric="true"
     v:langID="1049" /><style
     type="text/css"
     id="style5558" /><defs
     id="Markers"><marker
       markerUnits="strokeWidth"
       refX="6.3333335"
       orient="auto"
       id="mrkr13-55"
       style="fill:#000000;fill-opacity:1;stroke:#000000;stroke-width:0.46153846;stroke-opacity:1"><use
         transform="scale(2.1666667,2.1666667)"
         id="use5565"
         x="0"
         y="0"
         width="3"
         height="3" /></marker><marker
       inkscape:stockid="Arrow1Mstart"
       orient="auto"
       refY="0"
       refX="0"
       id="Arrow1Mstart"
       style="overflow:visible"><path
         inkscape:connector-curvature="0"
         id="path6040"
         d="M 0,0 5,-5 -12.5,0 5,5 0,0 z"
         style="fill-rule:evenodd;stroke:#000000;stroke-width:1pt"
         transform="matrix(0.4,0,0,0.4,4,0)" /></marker><marker
       inkscape:stockid="Arrow1Mstart"
       orient="auto"
       refY="0"
       refX="0"
       id="marker14918"
       style="overflow:visible"><path
         inkscape:connector-curvature="0"
         id="path14920"
         d="M 0,0 5,-5 -12.5,0 5,5 0,0 z"
         style="fill-rule:evenodd;stroke:#000000;stroke-width:1pt"
         transform="matrix(0.4,0,0,0.4,4,0)" /></marker></defs><g
     transform="matrix(-0.69935755,0,0,1.0088732,509.98876,-212.63902)"
     id="shape3-4"><title
       id="title5580">Sheet.3</title><path
       d="m 0,595.28 129.87,-0.63 2.59,-3.26 L 355.97,508.82 314.58,495.93 0,595.28 z"
       id="path5582"
       style="fill:#d9d9d9;stroke:#000000;stroke-width:0.72000003;stroke-linecap:round;stroke-linejoin:round" /></g><g
     transform="matrix(0.69935755,0,0,1.0088732,0.50398684,-212.63902)"
     id="shape4-6"><title
       id="title5585">Sheet.4</title><path
       d="m 0,595.28 129.87,-0.63 2.59,-3.26 L 355.97,508.82 314.58,495.93 0,595.28 z"
       id="path5587"
       style="fill:#d9d9d9;stroke:#000000;stroke-width:0.72000003;stroke-linecap:round;stroke-linejoin:round" /></g><g
     transform="matrix(-0.69935755,0,0,1.0088732,509.11261,-212.93107)"
     id="shape5-8"><title
       id="title5590">Sheet.5</title><path
       d="m 0,231.02 0,364.26 314.58,-99.35 a 132.466,132.466 -180 0 0 0,-82.78 86.0959,86.0959 0 0 1 0,-66.23 71.2749,71.2749 -180 0 0 0,-60.27 L 33.11,231.02 0,231.02 z"
       id="path5592"
       style="fill:#bfbfbf;stroke:#000000;stroke-width:0.72000003;stroke-linecap:round;stroke-linejoin:round"
       inkscape:connector-curvature="0" /></g><g
     transform="matrix(0.69935755,0,0,1.0088732,0.50398684,-212.63902)"
     id="shape6-10"><title
       id="title5595">Sheet.6</title><path
       d="m 0,231.02 0,364.26 314.58,-99.35 a 132.466,132.466 -180 0 0 0,-82.78 86.0959,86.0959 0 0 1 0,-66.23 71.2749,71.2749 -180 0 0 0,-60.27 L 33.11,231.02 0,231.02 z"
       id="path5597"
       style="fill:#bfbfbf;stroke:#000000;stroke-width:0.72000003;stroke-linecap:round;stroke-linejoin:round" /></g><g
     transform="matrix(0.66084757,-0.3301613,0.22886999,0.95331981,-43.102853,-201.40391)"
     id="shape7-12"><title
       id="title5600">Sheet.7</title><path
       d="m 0,595.28 236.54,0"
       id="path5602"
       style="stroke:#000000;stroke-width:1.20000005;stroke-linecap:round;stroke-linejoin:round" /></g><g
     transform="matrix(0.65602974,-0.34958468,0.2423344,0.94636975,-51.118323,-179.35176)"
     id="shape8-15"><title
       id="title5605">Sheet.8</title><path
       d="m 0,595.28 238.28,0"
       id="path5607"
       style="stroke:#000000;stroke-width:1.20000005;stroke-linecap:round;stroke-linejoin:round" /></g><g
     transform="matrix(0.69935755,0,0,1.0088732,0.50398684,-213.26541)"
     id="group14-18"><title
       id="title5610">Sheet.14</title><g
       transform="translate(0,-363.631)"
       id="shape15-19"><title
         id="title5613">Sheet.15</title><path
         d="m 0,595.28 33.11,0"
         id="path5615"
         style="stroke:#000000;stroke-width:1.20000005;stroke-linecap:round;stroke-linejoin:round" /></g><g
       transform="translate(33.1138,-356.319)"
       id="shape16-22"><title
         id="title5618">Sheet.16</title><path
         d="m 0,587.96 14.07,3.14 8.28,4.18"
         id="path5620"
         style="stroke:#000000;stroke-width:1.20000005;stroke-linecap:round;stroke-linejoin:round" /></g><g
       transform="translate(18.2126,-55.4913)"
       id="shape17-25"><title
         id="title5623">Sheet.17</title><path
         d="m 37.25,294.45 5.8,7.31 4.97,11.49 0,49.09 0,3.14 -2.49,3.13 -33.11,15.67 -5.8,7.31 -4.14,18.8 -2.48,30.29 0,97.15 4.97,47 5.79,10.45"
         id="path5625"
         style="stroke:#000000;stroke-width:1.20000005;stroke-linecap:round;stroke-linejoin:round" /></g><g
       transform="translate(4.13923,0)"
       id="shape18-28"><title
         id="title5628">Sheet.18</title><path
         d="m 24.84,539.78 99.34,29.25 4.14,5.22 0,17.76 -2.59,3.27 -125.73,0"
         id="path5630"
         style="stroke:#000000;stroke-width:1.20000005;stroke-linecap:round;stroke-linejoin:round" /></g></g><g
     transform="matrix(-0.66084757,-0.3301613,-0.22886999,0.95331981,553.5958,-201.40391)"
     id="shape22-31"><title
       id="title5633">Sheet.22</title><path
       d="m 0,595.28 236.54,0"
       id="path5635"
       style="stroke:#000000;stroke-width:1.20000005;stroke-linecap:round;stroke-linejoin:round" /></g><g
     transform="matrix(-0.65602974,-0.34958468,-0.2423344,0.94636975,561.61113,-179.35176)"
     id="shape23-34"><title
       id="title5638">Sheet.23</title><path
       d="m 0,595.28 238.28,0"
       id="path5640"
       style="stroke:#000000;stroke-width:1.20000005;stroke-linecap:round;stroke-linejoin:round" /></g><g
     transform="matrix(-0.69935755,0,0,1.0088732,509.98876,-213.26541)"
     id="group30-37"><title
       id="title5643">Sheet.30</title><g
       transform="translate(0,-363.631)"
       id="shape31-38"><title
         id="title5646">Sheet.31</title><path
         d="m 0,595.28 33.11,0"
         id="path5648"
         style="stroke:#000000;stroke-width:1.20000005;stroke-linecap:round;stroke-linejoin:round" /></g><g
       transform="translate(33.1138,-356.319)"
       id="shape32-41"><title
         id="title5651">Sheet.32</title><path
         d="m 0,587.96 14.07,3.14 8.28,4.18"
         id="path5653"
         style="stroke:#000000;stroke-width:1.20000005;stroke-linecap:round;stroke-linejoin:round" /></g><g
       transform="translate(18.2126,-55.4913)"
       id="shape33-44"><title
         id="title5656">Sheet.33</title><path
         d="m 37.25,294.45 5.8,7.31 4.97,11.49 0,49.09 0,3.14 -2.49,3.13 -33.11,15.67 -5.8,7.31 -4.14,18.8 -2.48,30.29 0,97.15 4.97,47 5.79,10.45"
         id="path5658"
         style="stroke:#000000;stroke-width:1.20000005;stroke-linecap:round;stroke-linejoin:round" /></g><g
       transform="translate(4.13923,0)"
       id="shape34-47"><title
         id="title5661">Sheet.34</title><path
         d="m 24.84,539.78 99.34,29.25 4.14,5.22 0,17.76 -2.59,3.27 -125.73,0"
         id="path5663"
         style="stroke:#000000;stroke-width:1.20000005;stroke-linecap:round;stroke-linejoin:round" /></g></g><g
     transform="matrix(0.69935755,0,0,1.0088732,75.809383,-587.30527)"
     id="group40-61"><title
       id="title5676">Sheet.40</title></g><g
     transform="matrix(0.69935755,0,0,1.0088732,66.736969,-610.18955)"
     id="group41-62"><title
       id="title5679">Sheet.41</title></g><g
     transform="matrix(-0.67919105,-0.24052689,-0.16673483,0.97978159,588.97839,-251.9315)"
     id="shape42-63"><title
       id="title5682">Sheet.42</title><path
       d="m 0,595.28 336.71,0"
       id="path5684"
       style="stroke:#000000;stroke-width:1.20000005;stroke-linecap:round;stroke-linejoin:round" /></g><g
     transform="matrix(-0.69661407,0.08927424,0.06188549,1.0049155,426.83305,-498.73125)"
     id="shape123-66"><title
       id="title5687">Sheet.123</title><path
       d="m 0,595.28 290.89,0"
       id="path5689"
       style="stroke:#000000;stroke-width:1.20000005;stroke-linecap:round;stroke-linejoin:round" /></g><g
     transform="matrix(0.67919105,-0.24052689,0.16673483,0.97978159,-78.485653,-251.9315)"
     id="shape150-69"><title
       id="title5692">Sheet.150</title><path
       d="m 0,595.28 336.71,0"
       id="path5694"
       style="stroke:#000000;stroke-width:1.20000005;stroke-linecap:round;stroke-linejoin:round" /></g><g
     transform="matrix(0.69661407,0.08927424,-0.06188549,1.0049155,83.659669,-498.73125)"
     id="shape151-72"><title
       id="title5697">Sheet.151</title><path
       d="m 0,595.28 290.89,0"
       id="path5699"
       style="stroke:#000000;stroke-width:1.20000005;stroke-linecap:round;stroke-linejoin:round" /></g><g
     transform="matrix(-0.68608814,-0.19559509,0.13558781,-0.98973113,168.7456,673.96783)"
     id="shape160-75"><title
       id="title5702">Sheet.160</title><path
       d="m 0,595.28 329.1,0"
       id="path5704"
       style="stroke:#000000;stroke-width:1.20000005;stroke-linecap:round;stroke-linejoin:round" /></g><g
     transform="matrix(0.68608861,-0.19559163,-0.13558541,-0.98973182,341.74711,673.96783)"
     id="shape169-78"><title
       id="title5707">Sheet.169</title><path
       d="m 0,595.28 329.1,0"
       id="path5709"
       style="stroke:#000000;stroke-width:1.20000005;stroke-linecap:round;stroke-linejoin:round" /></g><g
     transform="matrix(0.67552752,0.2611156,-0.18100706,0.97449669,286.58486,-505.6953)"
     id="shape13-81"><title
       id="title5712">Sheet.13</title><ellipse
       cx="9.3622599"
       cy="590.59399"
       rx="9.3622599"
       ry="4.6811299"
       id="ellipse5714"
       style="fill:#ffffff;stroke:#000000;stroke-width:0.72000003;stroke-linecap:round;stroke-linejoin:round"
       d="m 18.72452,590.59399 c 0,2.58532 -4.191627,4.68113 -9.3622601,4.68113 C 4.1916265,595.27512 0,593.17931 0,590.59399 c 0,-2.58531 4.1916265,-4.68113 9.3622599,-4.68113 5.1706331,0 9.3622601,2.09582 9.3622601,4.68113 z"
       sodipodi:cx="9.3622599"
       sodipodi:cy="590.59399"
       sodipodi:rx="9.3622599"
       sodipodi:ry="4.6811299" /></g><g
     transform="matrix(0,-1.0088732,0.69935755,0,-236.67921,71.558432)"
     id="shape19-83"><title
       id="title5717">Sheet.19</title><path
       d="m 0,595.28 25.71,0"
       id="path5719"
       style="stroke:#000000;stroke-width:0.72000003;stroke-linecap:round;stroke-linejoin:round" /></g><g
     transform="matrix(0,-1.0088732,0.69935755,0,-224.26212,75.959142)"
     id="shape20-86"><title
       id="title5722">Sheet.20</title><path
       d="m 0,595.28 25.71,0"
       id="path5724"
       style="stroke:#000000;stroke-width:0.72000003;stroke-linecap:round;stroke-linejoin:round" /></g><g
     transform="matrix(0.67915728,0.24072525,-0.16687233,0.97973287,278.9662,-537.59113)"
     id="shape21-89"><title
       id="title5727">Sheet.21</title><path
       d="m 0,595.28 a 18.7955,18.7727 0 0 1 18.28,0"
       id="path5729"
       style="stroke:#000000;stroke-width:0.72000003;stroke-linecap:round;stroke-linejoin:round" /></g><g
     transform="matrix(0.67552752,0.2611156,-0.18100706,0.97449669,267.23936,-509.58985)"
     id="shape24-92"><title
       id="title5732">Sheet.24</title><ellipse
       cx="11.37"
       cy="589.591"
       rx="11.37"
       ry="5.6849999"
       id="ellipse5734"
       style="fill:#ffffff;stroke:#000000;stroke-width:0.72000003;stroke-linecap:round;stroke-linejoin:round"
       d="m 22.74,589.591 c 0,3.13974 -5.090523,5.685 -11.37,5.685 -6.2794777,0 -11.37,-2.54526 -11.37,-5.685 0,-3.13974 5.0905223,-5.685 11.37,-5.685 6.279477,0 11.37,2.54526 11.37,5.685 z" /></g><g
     transform="matrix(0,-1.0088732,0.69935755,0,-255.67656,66.168022)"
     id="shape25-94"><title
       id="title5737">Sheet.25</title><path
       d="m 0,595.28 31.22,0"
       id="path5739"
       style="stroke:#000000;stroke-width:0.72000003;stroke-linecap:round;stroke-linejoin:round" /></g><g
     transform="matrix(0,-1.0088732,0.69935755,0,-240.59701,71.512022)"
     id="shape26-97"><title
       id="title5742">Sheet.26</title><path
       d="m 0,595.28 31.22,0"
       id="path5744"
       style="stroke:#000000;stroke-width:0.72000003;stroke-linecap:round;stroke-linejoin:round" /></g><g
     transform="matrix(0.67915728,0.24072525,-0.16687233,0.97973287,259.96883,-548.54346)"
     id="shape27-100"><title
       id="title5747">Sheet.27</title><path
       d="m 0,595.28 a 22.8263,22.7986 0 0 1 22.2,0"
       id="path5749"
       style="stroke:#000000;stroke-width:0.72000003;stroke-linecap:round;stroke-linejoin:round" /></g><g
     id="N0EMSLProbe"
     inkscape:label=""><g
       id="shape9-103"
       transform="matrix(0.67552752,0.2611156,-0.18100706,0.97449669,302.79961,-502.37036)"><title
         id="title5752">Sheet.9</title><ellipse
         d="m 17.1106,590.99799 c 0,2.36248 -3.830339,4.27765 -8.5553002,4.27765 C 3.8303382,595.27564 0,593.36047 0,590.99799 c 0,-2.36248 3.8303382,-4.27765 8.5552998,-4.27765 4.7249612,0 8.5553002,1.91517 8.5553002,4.27765 z"
         style="fill:#ffffff;stroke:#000000;stroke-width:0.72000003;stroke-linecap:round;stroke-linejoin:round"
         id="ellipse5754"
         ry="4.2776499"
         rx="8.5552998"
         cy="590.99799"
         cx="8.5552998" /></g><g
       id="shape10-105"
       transform="matrix(0,-1.0088732,0.69935755,0,-220.39887,74.460962)"><title
         id="title5757">Sheet.10</title><path
         style="stroke:#000000;stroke-width:0.72000003;stroke-linecap:round;stroke-linejoin:round"
         id="path5759"
         d="m 0,595.28 23.49,0" /></g><g
       id="shape11-108"
       transform="matrix(0,-1.0088732,0.69935755,0,-209.05249,78.483342)"><title
         id="title5762">Sheet.11</title><path
         style="stroke:#000000;stroke-width:0.72000003;stroke-linecap:round;stroke-linejoin:round"
         id="path5764"
         d="m 0,595.28 23.49,0" /></g><g
       id="shape12-111"
       transform="matrix(0.67915728,0.24072525,-0.16687233,0.97973287,295.24655,-532.45193)"><title
         id="title5767">Sheet.12</title><path
         style="stroke:#000000;stroke-width:0.72000003;stroke-linecap:round;stroke-linejoin:round"
         id="path5769"
         d="m 0,595.28 a 17.1755,17.1547 0 0 1 16.71,0" /></g></g><g
     transform="matrix(0.67552752,0.2611156,-0.18100706,0.97449669,235.19689,-518.14913)"
     id="shape28-114"><title
       id="title5772">Sheet.28</title><ellipse
       cx="11.5563"
       cy="589.49701"
       rx="11.5563"
       ry="5.7781401"
       id="ellipse5774"
       style="fill:#ffffff;stroke:#000000;stroke-width:0.72000003;stroke-linecap:round;stroke-linejoin:round"
       d="m 23.1126,589.49701 c 0,3.19118 -5.173931,5.77814 -11.5563,5.77814 C 5.1739318,595.27515 0,592.68819 0,589.49701 c 0,-3.19118 5.1739318,-5.77814 11.5563,-5.77814 6.382369,0 11.5563,2.58696 11.5563,5.77814 z" /></g><g
     transform="matrix(0,-1.0088732,0.69935755,0,-287.69944,57.537112)"
     id="shape29-116"><title
       id="title5777">Sheet.29</title><path
       d="m 0,595.28 31.73,0"
       id="path5779"
       style="stroke:#000000;stroke-width:0.72000003;stroke-linecap:round;stroke-linejoin:round" /></g><g
     transform="matrix(0,-1.0088732,0.69935755,0,-272.37302,62.969892)"
     id="shape35-119"><title
       id="title5782">Sheet.35</title><path
       d="m 0,595.28 31.73,0"
       id="path5784"
       style="stroke:#000000;stroke-width:0.72000003;stroke-linecap:round;stroke-linejoin:round" /></g><g
     transform="matrix(0.67915728,0.24072525,-0.16687233,0.97973287,227.94525,-557.6899)"
     id="shape36-122"><title
       id="title5787">Sheet.36</title><path
       d="m 0,595.28 a 23.2002,23.1721 0 0 1 22.57,0"
       id="path5789"
       style="stroke:#000000;stroke-width:0.72000003;stroke-linecap:round;stroke-linejoin:round" /></g><g
     transform="matrix(0.67552752,0.2611156,-0.18100706,0.97449669,213.00992,-523.20568)"
     id="shape37-125"><title
       id="title5792">Sheet.37</title><ellipse
       cx="13.6999"
       cy="588.42603"
       rx="13.6999"
       ry="6.8499398"
       id="ellipse5794"
       style="fill:#ffffff;stroke:#000000;stroke-width:0.72000003;stroke-linecap:round;stroke-linejoin:round"
       d="m 27.399799,588.42603 c 0,3.78311 -6.133654,6.84994 -13.699899,6.84994 C 6.133654,595.27597 0,592.20914 0,588.42603 c 0,-3.78312 6.133654,-6.84994 13.6999,-6.84994 7.566245,0 13.699899,3.06682 13.699899,6.84994 z"
       sodipodi:cx="13.6999"
       sodipodi:cy="588.42603"
       sodipodi:rx="13.6999"
       sodipodi:ry="6.8499398" /></g><g
     transform="matrix(0,-0.89425258,0.69935755,0,-309.52499,50.631219)"
     id="shape43-127"><title
       id="title5797">Sheet.43</title><path
       d="m 0,595.28 37.62,0"
       id="path5799"
       style="stroke:#000000;stroke-width:0.72000003;stroke-linecap:round;stroke-linejoin:round"
       inkscape:connector-curvature="0" /></g><g
     transform="matrix(0,-0.86368708,0.69935755,0,-291.35568,55.911823)"
     id="shape44-130"><title
       id="title5802">Sheet.44</title><path
       d="m 0,595.28 37.62,0"
       id="path5804"
       style="stroke:#000000;stroke-width:0.72000003;stroke-linecap:round;stroke-linejoin:round"
       inkscape:connector-curvature="0" /></g><g
     transform="matrix(0.67915728,0.24072525,-0.16687233,0.97973287,206.12038,-566.18865)"
     id="shape45-133"><title
       id="title5807">Sheet.45</title><path
       d="m 0,595.28 a 27.5037,27.4703 0 0 1 26.75,0"
       id="path5809"
       style="stroke:#000000;stroke-width:0.72000003;stroke-linecap:round;stroke-linejoin:round" /></g><g
     transform="matrix(0.67552752,0.2611156,-0.18100706,0.97449669,186.03694,-527.6612)"
     id="shape46-136"><title
       id="title5812">Sheet.46</title><ellipse
       cx="16.7943"
       cy="586.87799"
       rx="16.7943"
       ry="8.3971596"
       id="ellipse5814"
       style="fill:#ffffff;stroke:#000000;stroke-width:0.72000003;stroke-linecap:round;stroke-linejoin:round"
       d="m 33.5886,586.87799 c 0,4.63762 -7.519064,8.39716 -16.7943,8.39716 C 7.5190643,595.27515 0,591.51561 0,586.87799 c 0,-4.63762 7.5190643,-8.39716 16.7943,-8.39716 9.275236,0 16.7943,3.75954 16.7943,8.39716 z"
       sodipodi:cx="16.7943"
       sodipodi:cy="586.87799"
       sodipodi:rx="16.7943"
       sodipodi:ry="8.3971596" /></g><g
     transform="matrix(0,-0.95886419,0.69935755,0,-336.33277,45.706067)"
     id="shape47-138"><title
       id="title5817">Sheet.47</title><path
       d="m 0,595.28 46.12,0"
       id="path5819"
       style="stroke:#000000;stroke-width:0.72000003;stroke-linecap:round;stroke-linejoin:round"
       inkscape:connector-curvature="0" /></g><g
     transform="matrix(0,-0.92135744,0.69935755,0,-314.05893,51.860454)"
     id="shape48-141"><title
       id="title5822">Sheet.48</title><path
       d="m 0,595.28 46.12,0"
       id="path5824"
       style="stroke:#000000;stroke-width:0.72000003;stroke-linecap:round;stroke-linejoin:round"
       inkscape:connector-curvature="0" /></g><g
     transform="matrix(0.67915728,0.24072525,-0.16687233,0.97973287,179.31262,-581.71117)"
     id="shape49-144"><title
       id="title5827">Sheet.49</title><path
       d="m 0,595.28 a 33.716,33.6751 0 0 1 32.8,0"
       id="path5829"
       style="stroke:#000000;stroke-width:0.72000003;stroke-linecap:round;stroke-linejoin:round" /></g><g
     transform="matrix(-0.00158557,1.0088706,-0.69935575,-0.0022873,617.407,81.419162)"
     id="N0EMSL"
     inkscape:label=""><path
       d="m 0,595.28 214.73,0"
       id="path5834"
       style="stroke:#0066ff;stroke-width:2;stroke-linecap:round;stroke-linejoin:round"
       inkscape:connector-curvature="0" /></g><g
     transform="matrix(0.44873653,0.77381082,-0.53641076,0.64733449,505.34125,-307.4389)"
     id="F70EL"
     style="stroke:#d45500"
     inkscape:label=""><path
       d="m 0,595.28 76.84,0"
       id="path5839"
       style="stroke:#d45500;stroke-width:2;stroke-linecap:round;stroke-linejoin:round"
       inkscape:connector-curvature="0" /></g><g
     transform="matrix(-0.4702611,0.65055899,-0.35590088,-0.85960052,378.04443,584.73135)"
     id="B70EL"
     style="stroke:#d45500"
     inkscape:label=""><path
       d="m 0,595.28 95.99,0"
       id="path5844"
       style="stroke:#d45500;stroke-width:2;stroke-linecap:round;stroke-linejoin:round"
       inkscape:connector-curvature="0" /></g><path
     inkscape:connector-curvature="0"
     style="stroke:#008000;stroke-width:2.00000000999999994;stroke-linecap:round;stroke-linejoin:round;stroke-miterlimit:3;stroke-dasharray:none"
     id="F58ELWL2"
     d="M 152.15346,102.9722 169.10562,78.517496"
     inkscape:label="" /><g
     transform="matrix(0.26871476,0.93142911,-0.64567279,0.38764023,502.40394,-166.13521)"
     id="F42EL"
     inkscape:label=""><path
       d="m 0,595.28 255.97,0"
       id="path5859"
       style="stroke:#663300;stroke-width:2;stroke-linecap:round;stroke-linejoin:round"
       inkscape:connector-curvature="0" /></g><g
     transform="matrix(-0.21263945,0.96110929,-0.66624728,-0.30674759,514.65179,247.21436)"
     id="B42EL"
     inkscape:label=""><path
       d="m 0,595.28 312.13,0"
       id="path5864"
       style="stroke:#663300;stroke-width:2;stroke-linecap:round;stroke-linejoin:round"
       inkscape:connector-curvature="0" /></g><g
     transform="matrix(-0.32574985,-0.89275011,0.61886026,-0.46991742,-311.07337,366.54705)"
     id="B58ELWL2"
     style="stroke-width:2.38101465999999995;stroke-miterlimit:3;stroke-dasharray:none;stroke:#008000"
     inkscape:label=""><path
       d="m 0,595.28 61.83,0"
       id="path5874"
       style="stroke:#008000;stroke-width:2.38101465999999995;stroke-linecap:round;stroke-linejoin:round;stroke-miterlimit:3;stroke-dasharray:none"
       inkscape:connector-curvature="0"
       inkscape:label="" /></g><g
     transform="matrix(-0.00158557,1.0088706,-0.69935575,-0.0022873,728.04676,82.174802)"
     id="N0EMSR"
     inkscape:label=""><path
       d="m 0,595.28 214.73,0"
       id="path5879"
       style="stroke:#0066ff;stroke-width:2;stroke-linecap:round;stroke-linejoin:round"
       inkscape:connector-curvature="0" /></g><g
     transform="matrix(-0.46189802,0.75752336,-0.52512018,-0.66632087,639.98925,472.64607)"
     id="F70ER"
     style="stroke:#d45500"
     inkscape:label=""><path
       d="m 0,595.28 81,0"
       id="path5884"
       style="stroke:#d45500;stroke-width:2;stroke-linecap:round;stroke-linejoin:round"
       inkscape:connector-curvature="0" /></g><g
     transform="matrix(-0.37308323,-0.62116719,0.26347392,-0.87958252,226.1363,655.15636)"
     id="B70ER"
     style="stroke:#d45500"
     inkscape:label=""><path
       d="m 0,595.28 93.95,0"
       id="path5889"
       style="stroke:#d45500;stroke-width:2;stroke-linecap:round;stroke-linejoin:round"
       inkscape:connector-curvature="0" /></g><g
     id="N0EMSRProbe"
     inkscape:label=""><g
       id="shape62-183"
       transform="matrix(0.67552752,-0.2611156,0.18100706,0.97449669,197.88406,-497.62058)"><title
         id="title5892">Sheet.62</title><ellipse
         d="m 17.1106,590.99799 c 0,2.36248 -3.830339,4.27765 -8.5553002,4.27765 C 3.8303382,595.27564 0,593.36047 0,590.99799 c 0,-2.36248 3.8303382,-4.27765 8.5552998,-4.27765 4.7249612,0 8.5553002,1.91517 8.5553002,4.27765 z"
         style="fill:#ffffff;stroke:#000000;stroke-width:0.72000003;stroke-linecap:round;stroke-linejoin:round"
         id="ellipse5894"
         ry="4.2776499"
         rx="8.5552998"
         cy="590.99799"
         cx="8.5552998" /></g><g
       id="shape63-185"
       transform="matrix(0,-1.0088732,0.69935755,0,-111.27601,78.890922)"><title
         id="title5897">Sheet.63</title><path
         style="stroke:#000000;stroke-width:0.72000003;stroke-linecap:round;stroke-linejoin:round"
         id="path5899"
         d="m 0,595.28 23.49,0" /></g><g
       id="shape64-188"
       transform="matrix(0,-1.0088732,0.69935755,0,-99.849213,74.179482)"><title
         id="title5902">Sheet.64</title><path
         style="stroke:#000000;stroke-width:0.72000003;stroke-linecap:round;stroke-linejoin:round"
         id="path5904"
         d="m 0,595.28 23.49,0" /></g><g
       id="shape65-191"
       transform="matrix(0.67243929,-0.27720795,0.19216238,0.9700417,190.64501,-522.25424)"><title
         id="title5907">Sheet.65</title><path
         style="stroke:#000000;stroke-width:0.72000003;stroke-linecap:round;stroke-linejoin:round"
         id="path5909"
         d="m 0,595.28 a 17.4698,17.1547 0 0 1 16.99,0" /></g></g><g
     transform="matrix(0.67552752,-0.2611156,0.18100706,0.97449669,215.22044,-502.1938)"
     id="shape66-194"><title
       id="title5912">Sheet.66</title><ellipse
       cx="9.1379204"
       cy="590.70697"
       rx="9.1379204"
       ry="4.5689602"
       id="ellipse5914"
       style="fill:#ffffff;stroke:#000000;stroke-width:0.72000003;stroke-linecap:round;stroke-linejoin:round"
       d="m 18.275841,590.70697 c 0,2.52337 -4.091187,4.56896 -9.1379206,4.56896 C 4.0911863,595.27593 0,593.23034 0,590.70697 c 0,-2.52337 4.0911863,-4.56896 9.1379204,-4.56896 5.0467336,0 9.1379206,2.04559 9.1379206,4.56896 z" /></g><g
     transform="matrix(0,-1.0088732,0.69935755,0,-93.980203,74.073552)"
     id="shape67-196"><title
       id="title5917">Sheet.67</title><path
       d="m 0,595.28 25.09,0"
       id="path5919"
       style="stroke:#000000;stroke-width:0.72000003;stroke-linecap:round;stroke-linejoin:round" /></g><g
     transform="matrix(0,-1.0088732,0.69935755,0,-81.775503,69.042302)"
     id="shape68-199"><title
       id="title5922">Sheet.68</title><path
       d="m 0,595.28 25.09,0"
       id="path5924"
       style="stroke:#000000;stroke-width:0.72000003;stroke-linecap:round;stroke-linejoin:round" /></g><g
     transform="matrix(0.67243929,-0.27720795,0.19216238,0.9700417,207.94082,-528.6848)"
     id="shape69-202"><title
       id="title5927">Sheet.69</title><path
       d="m 0,595.28 a 18.6595,18.3229 0 0 1 18.15,0"
       id="path5929"
       style="stroke:#000000;stroke-width:0.72000003;stroke-linecap:round;stroke-linejoin:round" /></g><g
     transform="matrix(0.67552752,-0.2611156,0.18100706,0.97449669,230.71092,-505.33563)"
     id="shape70-205"><title
       id="title5932">Sheet.70</title><ellipse
       cx="10.7475"
       cy="589.90198"
       rx="10.7475"
       ry="5.3737302"
       id="ellipse5934"
       style="fill:#ffffff;stroke:#000000;stroke-width:0.72000003;stroke-linecap:round;stroke-linejoin:round"
       d="m 21.495001,589.90198 c 0,2.96783 -4.81182,5.37373 -10.747501,5.37373 -5.9356802,0 -10.7475,-2.4059 -10.7475,-5.37373 0,-2.96783 4.8118198,-5.37373 10.7475,-5.37373 5.935681,0 10.747501,2.4059 10.747501,5.37373 z"
       sodipodi:cx="10.7475"
       sodipodi:cy="589.90198"
       sodipodi:rx="10.7475"
       sodipodi:ry="5.3737302" /></g><g
     transform="matrix(0,-0.94097612,0.69935755,0,-78.894503,69.795738)"
     id="shape71-207"><title
       id="title5937">Sheet.71</title><path
       d="m 0,595.28 29.51,0"
       id="path5939"
       style="stroke:#000000;stroke-width:0.72000003;stroke-linecap:round;stroke-linejoin:round"
       inkscape:connector-curvature="0" /></g><g
     transform="matrix(0,-0.97007487,0.69935755,0,-64.539763,64.745114)"
     id="shape72-210"><title
       id="title5942">Sheet.72</title><path
       d="m 0,595.28 29.51,0"
       id="path5944"
       style="stroke:#000000;stroke-width:0.72000003;stroke-linecap:round;stroke-linejoin:round"
       inkscape:connector-curvature="0" /></g><g
     transform="matrix(0.67243929,-0.27720795,0.19216238,0.9700417,223.02667,-535.39885)"
     id="shape73-213"><title
       id="title5947">Sheet.73</title><path
       d="m 0,595.28 a 21.9461,21.5503 0 0 1 21.35,0"
       id="path5949"
       style="stroke:#000000;stroke-width:0.72000003;stroke-linecap:round;stroke-linejoin:round" /></g><g
     transform="matrix(0.67552752,-0.2611156,0.18100706,0.97449669,257.57563,-513.1764)"
     id="shape74-216"><title
       id="title5952">Sheet.74</title><ellipse
       cx="10.8234"
       cy="589.86401"
       rx="10.8234"
       ry="5.4116902"
       id="ellipse5954"
       style="fill:#ffffff;stroke:#000000;stroke-width:0.72000003;stroke-linecap:round;stroke-linejoin:round"
       d="m 21.646799,589.86401 c 0,2.9888 -4.845801,5.41169 -10.823399,5.41169 C 4.845801,595.2757 0,592.85281 0,589.86401 c 0,-2.98879 4.845801,-5.41169 10.8234,-5.41169 5.977598,0 10.823399,2.4229 10.823399,5.41169 z" /></g><g
     transform="matrix(0,-1.0088732,0.69935755,0,-51.743133,62.384752)"
     id="shape75-218"><title
       id="title5957">Sheet.75</title><path
       d="m 0,595.28 29.72,0"
       id="path5959"
       style="stroke:#000000;stroke-width:0.72000003;stroke-linecap:round;stroke-linejoin:round" /></g><g
     transform="matrix(0,-1.0088732,0.69935755,0,-37.286993,56.425332)"
     id="shape76-221"><title
       id="title5962">Sheet.76</title><path
       d="m 0,595.28 29.72,0"
       id="path5964"
       style="stroke:#000000;stroke-width:0.72000003;stroke-linecap:round;stroke-linejoin:round" /></g><g
     transform="matrix(0.67243929,-0.27720795,0.19216238,0.9700417,250.17782,-545.04267)"
     id="shape77-224"><title
       id="title5967">Sheet.77</title><path
       d="m 0,595.28 a 22.1012,21.7025 0 0 1 21.5,0"
       id="path5969"
       style="stroke:#000000;stroke-width:0.72000003;stroke-linecap:round;stroke-linejoin:round" /></g><g
     transform="matrix(0.67552752,-0.2611156,0.18100706,0.97449669,277.53601,-517.33598)"
     id="shape78-227"><title
       id="title5972">Sheet.78</title><ellipse
       cx="12.2293"
       cy="589.16101"
       rx="12.2293"
       ry="6.1146402"
       id="ellipse5974"
       style="fill:#ffffff;stroke:#000000;stroke-width:0.72000003;stroke-linecap:round;stroke-linejoin:round"
       d="m 24.458599,589.16101 c 0,3.37702 -5.475244,6.11464 -12.229299,6.11464 C 5.4752439,595.27565 0,592.53803 0,589.16101 c 0,-3.37702 5.4752439,-6.11464 12.2293,-6.11464 6.754055,0 12.229299,2.73762 12.229299,6.11464 z" /></g><g
     transform="matrix(0,-1.0088732,0.69935755,0,-31.881513,57.636992)"
     id="shape79-229"><title
       id="title5977">Sheet.79</title><path
       d="m 0,595.28 33.58,0"
       id="path5979"
       style="stroke:#000000;stroke-width:0.72000003;stroke-linecap:round;stroke-linejoin:round" /></g><g
     transform="matrix(0,-1.0088732,0.69935755,0,-15.547543,50.902762)"
     id="shape80-232"><title
       id="title5982">Sheet.80</title><path
       d="m 0,595.28 33.58,0"
       id="path5984"
       style="stroke:#000000;stroke-width:0.72000003;stroke-linecap:round;stroke-linejoin:round" /></g><g
     transform="matrix(0.67243929,-0.27720795,0.19216238,0.9700417,270.03959,-553.68669)"
     id="shape81-235"><title
       id="title5987">Sheet.81</title><path
       d="m 0,595.28 a 24.972,24.5215 0 0 1 24.29,0"
       id="path5989"
       style="stroke:#000000;stroke-width:0.72000003;stroke-linecap:round;stroke-linejoin:round" /></g><g
     transform="matrix(0.67552752,-0.2611156,0.18100706,0.97449669,297.69919,-518.5093)"
     id="shape82-238"><title
       id="title5992">Sheet.82</title><ellipse
       cx="15.7389"
       cy="587.40601"
       rx="15.7389"
       ry="7.8694301"
       id="ellipse5994"
       style="fill:#ffffff;stroke:#000000;stroke-width:0.72000003;stroke-linecap:round;stroke-linejoin:round"
       d="m 31.4778,587.40601 c 0,4.34616 -7.046545,7.86943 -15.7389,7.86943 C 7.0465456,595.27544 0,591.75217 0,587.40601 c 0,-4.34617 7.0465456,-7.86943 15.7389,-7.86943 8.692355,0 15.7389,3.52326 15.7389,7.86943 z" /></g><g
     transform="matrix(0,-1.0088732,0.69935755,0,-11.964023,54.993742)"
     id="shape83-240"><title
       id="title5997">Sheet.83</title><path
       d="m 0,595.28 43.22,0"
       id="path5999"
       style="stroke:#000000;stroke-width:0.72000003;stroke-linecap:round;stroke-linejoin:round" /></g><g
     transform="matrix(0,-1.0088732,0.69935755,0,9.0574728,46.327522)"
     id="shape84-243"><title
       id="title6002">Sheet.84</title><path
       d="m 0,595.28 43.22,0"
       id="path6004"
       style="stroke:#000000;stroke-width:0.72000003;stroke-linecap:round;stroke-linejoin:round" /></g><g
     transform="matrix(0.67243929,-0.27720795,0.19216238,0.9700417,289.9573,-566.05346)"
     id="shape85-246"><title
       id="title6007">Sheet.85</title><path
       d="m 0,595.28 a 32.1385,31.5588 0 0 1 31.26,0"
       id="path6009"
       style="stroke:#000000;stroke-width:0.72000003;stroke-linecap:round;stroke-linejoin:round" /></g><g
     transform="matrix(-0.32083595,0.89644558,-0.62142198,-0.46282878,740.55827,330.16891)"
     id="F58R1"
     style="stroke:#008000"><title
       id="title6012">Sheet.86</title></g><g
     transform="matrix(-0.5701082,-0.58433513,0.40506496,-0.82242179,111.98407,593.2094)"
     id="F58R2"
     inkscape:label="#F58R1"
     style="stroke:#008000"><title
       id="title6017">Sheet.87</title></g><g
     transform="matrix(-0.24878028,0.94288276,-0.65361254,-0.35888332,780.1489,273.87182)"
     id="F42ER"
     inkscape:label=""><path
       d="m 0,595.28 258.95,0"
       id="path6024"
       style="stroke:#663300;stroke-width:2;stroke-linecap:round;stroke-linejoin:round"
       inkscape:connector-curvature="0" /></g><g
     transform="matrix(0.2099388,0.962344,-0.6671032,0.30285171,788.17752,-120.0396)"
     id="B42ER"
     inkscape:label=""><path
       d="m 0,595.28 315.57,0"
       id="path6029"
       style="stroke:#663300;stroke-width:2;stroke-linecap:round;stroke-linejoin:round"
       inkscape:connector-curvature="0" /></g><g
     transform="matrix(0,1.0088732,-0.69935755,0,493.13816,59.919062)"
     id="BFLAWL"
     inkscape:label="#BFLAWL"><title
       id="title6177">Sheet.172</title><path
       d="m 0,595.28 28.35,0"
       id="path6179"
       style="stroke:#000000;stroke-width:2;stroke-linecap:round;stroke-linejoin:round"
       inkscape:connector-curvature="0" /></g><g
     transform="matrix(0,1.0088732,-0.69935755,0,562.22319,71.939422)"
     id="FFLAWL"><title
       id="title6182">Sheet.173</title><path
       d="m 0,595.28 28.35,0"
       id="path6184"
       style="stroke:#000000;stroke-width:2;stroke-linecap:round;stroke-linejoin:round"
       inkscape:connector-curvature="0" /></g><path
     inkscape:connector-curvature="0"
     style="stroke:#33cc33;stroke-width:2.00000001;stroke-linecap:round;stroke-linejoin:round;stroke-miterlimit:3;stroke-dasharray:6.00000004,6.00000004;stroke-dashoffset:10.60000007"
     id="F58MLUL2"
     d="M 145.8978,91.744326 122.20063,109.3498"
     inkscape:label=""
     sodipodi:nodetypes="cc" /><path
     inkscape:connector-curvature="0"
     style="stroke:#008000;stroke-width:2;stroke-linecap:round;stroke-linejoin:round;stroke-miterlimit:3;stroke-dasharray:none"
     id="F58ELWL"
     d="m 137.02855,55.496844 15.11827,47.469146"
     inkscape:label="" /><path
     inkscape:connector-curvature="0"
     style="stroke:#33cc33;stroke-width:2;stroke-linecap:round;stroke-linejoin:round;stroke-miterlimit:3;stroke-dasharray:6.00000004, 6.00000004;stroke-dashoffset:0"
     id="F58MLUL"
     d="M 98.074706,59.441039 122.3659,109.19477"
     inkscape:label="" /><path
     style="stroke:#33cc33;stroke-width:2;stroke-linecap:round;stroke-linejoin:round;stroke-miterlimit:3;stroke-dasharray:6.00000004, 6.00000004;stroke-dashoffset:0"
     d="M 78.540122,74.749201 89.10417,104.05484"
     id="B58MLUL2"
     inkscape:connector-curvature="0"
     sodipodi:nodetypes="cc"
     inkscape:label="" /><g
     transform="matrix(-0.49452046,0.71338108,-0.49452046,-0.71338108,381.59692,468.33832)"
     id="B58ELWL"
     style="stroke:#008000"
     inkscape:label=""><path
       d="m 0,595.28 60.47,0"
       id="path5869"
       style="stroke:#008000;stroke-width:2.16000009000000004;stroke-linecap:round;stroke-linejoin:round"
       inkscape:connector-curvature="0"
       inkscape:label="" /></g><g
     transform="matrix(0.69935755,0,0,1.0088732,376.42028,-495.33246)"
     id="shape177-332"><title
       id="title6202">Sheet.177</title></g><g
     transform="matrix(0,1.0088732,-0.69935755,0,777.61723,77.077982)"
     id="FFLAWR"><title
       id="title6212">Sheet.179</title><path
       d="m 0,595.28 22.68,0"
       id="path6214"
       style="stroke:#000000;stroke-width:2;stroke-linecap:round;stroke-linejoin:round"
       inkscape:connector-curvature="0" /></g><g
     transform="matrix(-0.64375725,-0.39421437,0.273272,-0.9286658,201.65219,645.94628)"
     id="shape180-341"><title
       id="title6217">Sheet.180</title><path
       d="m 0,595.28 4.94,0"
       id="path6219"
       style="stroke:#33cc33;stroke-width:0.72000003;stroke-linecap:round;stroke-linejoin:round" /></g><g
     transform="matrix(0,1.0088732,-0.69935755,0,845.86117,62.779222)"
     id="BFLAWR"><title
       id="title6222">Sheet.181</title><path
       d="m 0,595.28 28.35,0"
       id="path6224"
       style="stroke:#000000;stroke-width:2;stroke-linecap:round;stroke-linejoin:round"
       inkscape:connector-curvature="0" /></g><path
     inkscape:connector-curvature="0"
     style="font-size:12px;fill:#33cc33;stroke:#008000;stroke-width:2.00000000999999994;stroke-linecap:round;stroke-linejoin:round;stroke-miterlimit:3;stroke-dasharray:6.00000003999999976, 6.00000003999999976;stroke-dashoffset:0;fill-opacity:1"
     id="B58ELUL2"
     d="M 56.080986,98.106348 35.939872,42.907609"
     inkscape:label="" /><path
     inkscape:connector-curvature="0"
     style="font-size:12px;fill:#33cc33;stroke:#008000;stroke-width:2.00000000999999994;stroke-linecap:round;stroke-linejoin:round;stroke-miterlimit:3;stroke-dasharray:6.00000003999999976, 6.00000003999999976;stroke-dashoffset:0;fill-opacity:1"
     id="F58ELUL"
     d="M 135.84073,63.328874 150.959,110.79802"
     inkscape:label="" /><path
     inkscape:connector-curvature="0"
     style="font-size:12px;fill:#33cc33;stroke:#008000;stroke-width:2.00000000999999994;stroke-linecap:round;stroke-linejoin:round;stroke-miterlimit:3;stroke-dasharray:6.00000003999999976, 6.00000003999999976;stroke-dashoffset:0;fill-opacity:1"
     id="F58ELUL2"
     d="M 150.96564,110.80423 167.9178,86.349526"
     inkscape:label="" /><path
     id="B58MLUL"
     d="M 89.688269,104.05481 132.0797,63.395649"
     style="stroke:#33cc33;stroke-width:2;stroke-linecap:round;stroke-linejoin:round;stroke-miterlimit:3;stroke-dasharray:6.00000004, 6.00000004;stroke-dashoffset:0"
     inkscape:connector-curvature="0"
     inkscape:label=""
     sodipodi:nodetypes="cc" /><path
     inkscape:connector-curvature="0"
     style="font-size:12px;fill:none;stroke:#33cc33;stroke-width:2;stroke-linecap:round;stroke-linejoin:round;stroke-miterlimit:3;stroke-dasharray:none;overflow:visible"
     id="F58MLWL2"
     d="M 141.56665,89.237257 124.11669,101.90982"
     inkscape:label=""
     sodipodi:nodetypes="cc" /><path
     inkscape:connector-curvature="0"
     style="font-size:12px;fill:none;stroke:#33cc33;stroke-width:2;stroke-linecap:round;stroke-linejoin:round;stroke-miterlimit:3;stroke-dasharray:none;overflow:visible"
     id="F58MLWL"
     d="M 97.962336,47.985055 124.58996,101.97362"
     inkscape:label=""
     sodipodi:nodetypes="cc" /><path
     style="font-size:12px;fill:none;stroke:#33cc33;stroke-width:2;stroke-linecap:round;stroke-linejoin:round;stroke-miterlimit:3;stroke-dasharray:none;overflow:visible"
     d="M 78.631099,62.563096 91.093468,94.643219"
     id="B58MLWL2"
     inkscape:connector-curvature="0"
     sodipodi:nodetypes="cc"
     inkscape:label="" /><path
     inkscape:connector-curvature="0"
     style="font-size:12px;fill:#33cc33;stroke:#008000;stroke-width:2.00000000999999994;stroke-linecap:round;stroke-linejoin:round;stroke-miterlimit:3;stroke-dasharray:6.00000003999999976, 6.00000003999999976;stroke-dashoffset:0;fill-opacity:1"
     id="B58ELUL"
     d="M 85.978011,54.968571 56.074358,98.106725"
     inkscape:label="" /><path
     id="B58MLWL"
     d="M 91.036135,95.722725 132.11339,56.377739"
     style="font-size:12px;fill:none;stroke:#33cc33;stroke-width:2;stroke-linecap:round;stroke-linejoin:round;stroke-miterlimit:3;stroke-dasharray:none;overflow:visible"
     inkscape:connector-curvature="0"
     inkscape:label=""
     sodipodi:nodetypes="cc" /><path
     inkscape:connector-curvature="0"
     style="font-size:12px;fill:none;stroke:#008000;stroke-width:2;stroke-linecap:round;stroke-linejoin:round;stroke-miterlimit:3;stroke-dasharray:none;overflow:visible"
     id="F58ELWR2"
     d="M 355.15685,102.55691 338.20469,78.1022"
     inkscape:label="" /><g
     transform="matrix(0.32574985,-0.89275011,-0.61886026,-0.46991742,818.38368,366.13175)"
     id="B58ELWR2"
     style="font-size:12px;fill:none;stroke:#008000;stroke-width:2.38101459;stroke-linecap:square;stroke-miterlimit:3;stroke-dasharray:none;overflow:visible"
     inkscape:label=""><path
       d="m 0,595.28 61.83,0"
       id="path5874-6"
       style="stroke:#008000;stroke-width:2.38101459;stroke-linecap:round;stroke-linejoin:round;stroke-miterlimit:3;stroke-dasharray:none"
       inkscape:connector-curvature="0" /></g><path
     inkscape:connector-curvature="0"
     style="font-size:12px;fill:none;stroke:#33cc33;stroke-width:2;stroke-linecap:round;stroke-linejoin:round;stroke-miterlimit:3;stroke-dasharray:6.00000008, 6.00000008;stroke-dashoffset:10.60000014;overflow:visible"
     id="F58MLUR2"
     d="m 361.41251,91.32903 23.69717,17.60548"
     inkscape:label=""
     sodipodi:nodetypes="cc" /><path
     inkscape:connector-curvature="0"
     style="font-size:12px;fill:none;stroke:#008000;stroke-width:2;stroke-linecap:round;stroke-linejoin:round;stroke-miterlimit:3;stroke-dasharray:none;overflow:visible"
     id="F58ELWR"
     d="M 370.28176,55.081549 355.16349,102.5507"
     inkscape:label="" /><path
     inkscape:connector-curvature="0"
     style="font-size:12px;fill:none;stroke:#33cc33;stroke-width:2;stroke-linecap:round;stroke-linejoin:round;stroke-miterlimit:3;stroke-dasharray:6.00000008, 6.00000008;stroke-dashoffset:0;overflow:visible"
     id="F58MLUR"
     d="M 409.2356,59.025744 384.94441,108.77948"
     inkscape:label="" /><path
     style="font-size:12px;fill:none;stroke:#33cc33;stroke-width:2;stroke-linecap:round;stroke-linejoin:round;stroke-miterlimit:3;stroke-dasharray:6.00000008, 6.00000008;stroke-dashoffset:0;overflow:visible"
     d="m 428.77019,74.33391 -10.56405,29.30564"
     id="B58MLUR2"
     inkscape:connector-curvature="0"
     sodipodi:nodetypes="cc"
     inkscape:label="" /><g
     transform="matrix(0.49452046,0.71338108,0.49452046,-0.71338108,125.71339,467.92302)"
     id="B58ELWR"
     style="font-size:12px;fill:none;stroke:#008000;stroke-linecap:square;stroke-miterlimit:3;overflow:visible"
     inkscape:label=""><path
       d="m 0,595.28 60.47,0"
       id="path5869-9"
       style="stroke:#008000;stroke-width:2.16000009;stroke-linecap:round;stroke-linejoin:round"
       inkscape:connector-curvature="0" /></g><path
     inkscape:connector-curvature="0"
     style="font-size:12px;fill:#33cc33;fill-opacity:1;stroke:#008000;stroke-width:2;stroke-linecap:round;stroke-linejoin:round;stroke-miterlimit:3;stroke-dasharray:6.00000008, 6.00000008;stroke-dashoffset:0;overflow:visible"
     id="B58ELUR2"
     d="M 451.22932,97.69105 471.37044,42.492313"
     inkscape:label="" /><path
     inkscape:connector-curvature="0"
     style="font-size:12px;fill:#33cc33;fill-opacity:1;stroke:#008000;stroke-width:2;stroke-linecap:round;stroke-linejoin:round;stroke-miterlimit:3;stroke-dasharray:6.00000008, 6.00000008;stroke-dashoffset:0;overflow:visible"
     id="F58ELUR"
     d="m 371.46958,62.91358 -15.11827,47.46915"
     inkscape:label="" /><path
     inkscape:connector-curvature="0"
     style="font-size:12px;fill:#33cc33;fill-opacity:1;stroke:#008000;stroke-width:2;stroke-linecap:round;stroke-linejoin:round;stroke-miterlimit:3;stroke-dasharray:6.00000008, 6.00000008;stroke-dashoffset:0;overflow:visible"
     id="F58ELUR2"
     d="M 356.34467,110.38894 339.39251,85.93423"
     inkscape:label="" /><path
     id="B58MLUR"
     d="M 417.62204,103.63952 375.23061,62.98035"
     style="font-size:12px;fill:none;stroke:#33cc33;stroke-width:2;stroke-linecap:round;stroke-linejoin:round;stroke-miterlimit:3;stroke-dasharray:6.00000008, 6.00000008;stroke-dashoffset:0;overflow:visible"
     inkscape:connector-curvature="0"
     inkscape:label=""
     sodipodi:nodetypes="cc" /><path
     inkscape:connector-curvature="0"
     style="font-size:12px;fill:none;stroke:#33cc33;stroke-width:2;stroke-linecap:round;stroke-linejoin:round;stroke-miterlimit:3;stroke-dasharray:none;overflow:visible"
     id="F58MLWR2"
     d="m 365.74366,88.82196 17.44996,12.67257"
     inkscape:label=""
     sodipodi:nodetypes="cc" /><path
     inkscape:connector-curvature="0"
     style="font-size:12px;fill:none;stroke:#33cc33;stroke-width:2;stroke-linecap:round;stroke-linejoin:round;stroke-miterlimit:3;stroke-dasharray:none;overflow:visible"
     id="F58MLWR"
     d="M 410.58703,47.569759 383.7529,101.55833"
     inkscape:label=""
     sodipodi:nodetypes="cc" /><path
     style="font-size:12px;fill:none;stroke:#33cc33;stroke-width:2;stroke-linecap:round;stroke-linejoin:round;stroke-miterlimit:3;stroke-dasharray:none;overflow:visible"
     d="M 428.67921,62.147801 416.21684,94.22792"
     id="B58MLWR2"
     inkscape:connector-curvature="0"
     sodipodi:nodetypes="cc"
     inkscape:label="" /><path
     inkscape:connector-curvature="0"
     style="font-size:12px;fill:#33cc33;fill-opacity:1;stroke:#008000;stroke-width:2;stroke-linecap:round;stroke-linejoin:round;stroke-miterlimit:3;stroke-dasharray:6.00000008, 6.00000008;stroke-dashoffset:0;overflow:visible"
     id="B58ELUR"
     d="M 421.3323,54.553276 451.23595,97.69143"
     inkscape:label="" /><path
     id="B58MLWR"
     d="M 416.27417,95.30743 375.19692,55.962444"
     style="font-size:12px;fill:none;stroke:#33cc33;stroke-width:2;stroke-linecap:round;stroke-linejoin:round;stroke-miterlimit:3;stroke-dasharray:none;overflow:visible"
     inkscape:connector-curvature="0"
     inkscape:label=""
     sodipodi:nodetypes="cc" /><path
     inkscape:connector-curvature="0"
     style="font-size:12px;fill:#33cc33;fill-opacity:1;fill-rule:nonzero;stroke:#000000;stroke-width:2;stroke-linecap:butt;stroke-linejoin:round;stroke-miterlimit:3;stroke-opacity:1;stroke-dasharray:none;marker-start:url(#Arrow1Mstart);marker-end:none;overflow:visible"
     id="path7832"
     d="m 245.88134,70.254615 -0.30865,-0.08784 -32.57131,-9.269349" /><path
     d="m 266.425,70.254615 0.30865,-0.08784 32.57131,-9.269349"
     id="path14886"
     style="font-size:12px;fill:#33cc33;fill-opacity:1;fill-rule:nonzero;stroke:#000000;stroke-width:2;stroke-linecap:butt;stroke-linejoin:round;stroke-miterlimit:3;stroke-opacity:1;stroke-dasharray:none;marker-start:url(#Arrow1Mstart);marker-end:none;overflow:visible"
     inkscape:connector-curvature="0" /></svg>